<?xml version="1.0" encoding="UTF-8"?>
<svg version="1.1" viewBox="0 0 2048 1621" width="1280" height="1280" xmlns="http://www.w3.org/2000/svg">
<path transform="translate(0)" d="m0 0h2048v1621h-2048z"/>
<path transform="translate(1038,339)" d="m0 0h111l9 1v14l-1 16-1 5-5 2-17 3-2 1 1 76 1 3 20 8 20 10 18 12 16 13 10 10 11 15 12 23 9 27 4 21 1 22-2 18-6 23-9 20-9 15-10 14-11 12-12 12-7 4-1-1v-129l-8-7-22-15-18-13-20-14-22-15-17-12-14-9-3-1 1 38 4 5 18 13 16 11 34 24 11 7 5 5v183l-1 9h-21l-9-1-2-2v-47l-28 1-27-2-19-5-16-7-15-8-15-11-12-11-12-12-10-14-9-16-8-20-5-18-2-14-1-15v-11l2-21 4-17 7-17 8-15 13-19 11-13 3-3h3l1 3v111l3 8 25 17 19 14 19 13 19 14 14 10 19 14 10 6-1-39-7-8-9-6-15-11-34-24-18-13-8-7-2-3v-61l1-61 2-5 14-5 19-7 1-45v-31l-2-5-20-1-3-1-1-3-1-20v-14z" fill="#ABFE83"/>
<path transform="translate(1278,1120)" d="m0 0 21 1 6 4 11 18 11 16 5 1 1-13 1-26 6-1h19v35l-1 61-4 2h-12l-8-5-24-36-6-8-1 6-1 39-2 2-5 1h-14l-3-1-2-4v-89z" fill="#ABFE83"/>
<path transform="translate(1e3 936)" d="m0 0 21 1 5 3 6 8 13 22 5 6v2l4 2 1 1 1-13 1-32h24l1 1v34l-1 60-2 3h-11l-8-3-6-7-18-27-7-11-2-2-1 2-1 43-1 3-5 1h-16l-3-1-1-2-1-28v-16l1-47z" fill="#ABFE83"/>
<path transform="translate(1438,1120)" d="m0 0h9l14 3 10 5 5 5 3 4 2 6v5l-2 2h-8l-20-4h-14l-10 4-8 7-3 7v12l4 9 6 7 10 7h12l8-3 4-5h-2v-2h2l-1-3h-11l-6-3-3-5-1-7 5-6 3-1 42-1 5 4 1 7-3 15-6 11-8 9-10 7-11 5-12 2h-10l-9-2-10-5-10-9-6-9-6-12-3-10v-14l4-10 7-11 10-10 13-8z" fill="#ABFE83"/>
<path transform="translate(802,1120)" d="m0 0h21l3 1 1 2v40l-1 54-2 1h-20l-3-3-1-2v-32l-2-1h-29l-5 1-1 3-1 32-1 1-10 1h-11l-3-5v-91l1-1h24l1 1-1 30 1 4 5 1 32 1v-16l1-21z" fill="#ABFE83"/>
<path transform="translate(897,1119)" d="m0 0h15l6 4 9 21 8 21 16 48v5h-17l-8-3-6-11-5-4h-16l-12 3-2 5-4 7-4 2h-20l-1-2 9-25 7-21 11-28 7-16z" fill="#ABFE83"/>
<path transform="translate(1494,936)" d="m0 0 13 1 12 4 9 5 5 5 5 9v8l-3 3h-12l-16-8-4-1h-14l-7 4-9 9-3 7v8l5 12 8 8 7 3h10l10-4 13-8h9l6 3 2 4-1 6-6 8-7 7-10 6-12 4h-18l-11-4-11-8-8-9-8-13-3-8-1-6v-9l3-10 6-11 8-10 12-9 13-5z" fill="#ABFE83"/>
<path transform="translate(745,936)" d="m0 0h12l13 3 14 7 7 8 3 9-1 6-4 3h-9l-20-10h-16l-6 4-10 10-3 6v8l7 14 4 5 9 4h11l9-3 10-7 10-2 7 2 3 4-1 7-4 6-10 10-11 6-10 3h-17l-11-4-9-6-11-11-8-16-3-12v-10l3-9 6-12 11-12 10-6 10-4z" fill="#ABFE83"/>
<path transform="translate(651,1121)" d="m0 0h20l13 4 11 7 6 7 2 6-1 6-5 5-10 1-14-9-5-2-9-1-8 2-9 6-6 8-2 7 1 9 7 14 9 5 3 1h12l10-5 6-5 11-2 5 1 5 5 1 6-5 8-12 10-11 5-8 2h-21l-14-7-10-9-7-11-5-13-1-5v-15l4-11 6-10 5-6 13-9 9-4z" fill="#ABFE83"/>
<path transform="translate(900,936)" d="m0 0h25l38 1v23l-2 3-1-4h-30l-3 1-1 2v8l1 2 4 1 26 1 4 1v12l-1 6-7 2-25 2-3 1v8l2 5 2 1h21l13-1 1 1v19l-5 2-23 1h-32l-4-3-1-5v-61z" fill="#ABFE83"/>
<path transform="translate(1525,1120)" d="m0 0 63 1 2 4-1 16-1 1-37 1v7l2 6 8 2 19 1 7 2v15l-1 1-35 2v12l2 4 2 1h24l9-1 2 3v13l-3 5-4 1-29 1h-26l-3-5-1-71v-20z" fill="#ABFE83"/>
<path transform="translate(1176,1121)" d="m0 0h61l3 3v19l-2 1-8-2h-25l-2 1v10l2 4 2 1 31 1v18l-5 1-31 2v11l3 5 2 1h22l11-2v17l-3 4-6 1-22 1h-30l-2-2-1-14z" fill="#ABFE83"/>
<path transform="translate(627,934)" d="m0 0h13l12 4 9 6 5 6 1 3v7l-2 4-4 2-8-1-13-6-3-1h-11l-2 1 1 9 27 11 14 9 5 6 2 7v12l-5 10-8 8-8 5-8 3h-12l-10-2-12-6-5-4-5-8-1-8 4-5 3-1h8l7 4 7 5 3 1h15l3-3v-7l-3-4-20-8-13-7-8-7-5-10v-7l4-10 7-9 11-7z" fill="#ABFE83"/>
<path transform="translate(864,421)" d="m0 0 36 12 16 5 19 9 10 9 7 10 5 10 3 13v9l-4 5-6 2-11 1-21-6-13-7-13-11-10-13-11-23-7-21z" fill="#ABFE83"/>
<path transform="translate(1287,936)" d="m0 0 63 1v14l-1 7-2 1h-33l-2 5 1 9 2 3 33 1v17l-2 2-5 1-29 1-1 34-1 1h-20l-4-1-1-11v-32l1-52z" fill="#ABFE83"/>
<path transform="translate(1114,936)" d="m0 0h20l53 1 1 1v9l-1 10-3 3h-21l-1 72-1 1h-21l-2-1-2-73h-19l-5-2v-13l1-7z" fill="#ABFE83"/>
<path transform="translate(1092,1121)" d="m0 0h15v29l-1 44h38l1 1v18l-5 4-25 1h-32l-2-2-1-4-1-40v-50z" fill="#ABFE83"/>
<path transform="translate(982,1121)" d="m0 0h26l1 1v70l1 2 6 1h10l20-1 1 2v16l-3 4-4 1-22 1h-32l-2-6-1-8-1-22z" fill="#ABFE83"/>
<path transform="translate(1e3 394)" d="m0 0h2l4 13 3 17v19l-4 12-9 15-7 8-8 6-8 1-5-8-5-17v-13l8-16 20-26 7-9z" fill="#ABFE83"/>
<path transform="translate(833,937)" d="m0 0h27v33l-1 62-1 1h-25l-1-3v-61z" fill="#ABFE83"/>
<path transform="translate(1223,936)" d="m0 0 23 1 1 1-1 94-1 1h-24l-1-1-1-8v-33l1-52z" fill="#ABFE83"/>
<path transform="translate(1399,936)" d="m0 0h13l1 1-1 95-3 2h-20l-3-1v-96z" fill="#ABFE83"/>
<path transform="translate(901,1162)" d="m0 0 7 1 2 2 3 11-4 4h-11l-3-1 1-9 4-7z" fill="#010201"/>
</svg>
