<?xml version="1.0" encoding="UTF-8"?>
<svg version="1.1" viewBox="0 0 2048 1316" width="180" height="180" xmlns="http://www.w3.org/2000/svg">
<path transform="translate(0)" d="m0 0h2048v1316h-2048z" fill="#FDFDFD"/>
<path transform="translate(0)" d="m0 0h2048v1316h-2048zm44 231-19 1-1 6v1025l1 5h2e3l1-1-1-680v-355l-47-1z" fill="#FDFDFD"/>
<path transform="translate(117,535)" d="m0 0h2l2 3 1 24 4 23 2 10 1 12v16l-3 17-5 24 4 20 2 5 12 5 38 12h6l18-10 10-6 5-8 2-2-1 6-8 11-3 6-1 5v16l4 42 3 42 4 27 11 48 8 31 9 20 5 12v2l9 3v2l5 2 1 1 16-1 8-1 2 3 1 9 10 2 82 9 80 9 99 12 81 9 89 11 85 10 76 9 59 8 55 7 16-8 27-14 28-15 27-14 29-14 34-15 39-15 37-12 35-9 32-7 38-6-1-10v-10l5 1 10 7 7 4 3 5 3 1 40 2 28 3 30 5 25 6 27 8 27 10 27 12 28 14 24 14 20 12 17 12 21 16 14 11 13 11 46 46 9 11 9 9 5 10v8l-1 1h-5l-14-13-5-6-8-7-38-38-8-7-9-9-8-6v-2l-4-2-14-11-20-15-26-17-24-14-30-15-26-11-33-11-22-6-31-6-34-4-12-1h-20l-12 9-19 12-9 7-3-1-1-26-27 3-35 6-27 6-35 10-28 10-34 14-20 9-30 14-31 15-22 12-24 12 21 3 46 5 99 14 216 24 97 12 108 12 61 7 15 1 1-30 5 2 20 13 15 9 17 10 17 9 7 1 5 4 1 4-34 8-27 8-21 7-8 2v-29l-26-2-48-5-86-11-127-15-85-9-82-10-133-15-44-5-35-5-11-4h-7l-28 16-27 14-31 14-33 13-25 9-42 13-37 9-36 7-42 5-35 3-9 3-13 10-5 3h-3l-1-7 1-10-36-3-36-5-35-7-29-8-29-10-29-12-24-11-22-11-24-14-15-10-28-21-13-11-14-11-15-13-17-16-6-7-2-5 3-3h3l2-5-1-3h2l7 8 9 9 8 7 15 14 11 9 13 10 16 12 17 13 10 7 19 12 29 15 13 6v2l5 1 13 5 30 11 35 10 31 7 37 6 30 3h13v-30l8 4 19 14 18 12h15l50-6 29-5 40-9 28-8 25-8 26-9 29-12 24-11 19-10 17-10h-16l-82-10-70-7-78-9-67-8-77-8-101-12-53-6-43-5-72-8-38-4-9-2-1-3-9 2-17 9-7 1-18-2-17 4-14 1-3-2-3-30-5-26-8-26-13-44-5-18-2-3-8 12-9 11-11 13-7 9-7 7-7 6-4 7 1 12-4 5v8l15 30-1 6-4 6-5 4-5-1-5-4-11-15-8-16-14-41-8-26v-9l6-8 13-10 9-7 9-6 8-8 13-18 10-15 11-18 7-14-2-27-3-18-6-20-4-7-9-6-5-23-5 5-8 9-1 2-7-1-11-10-1-5 4 2h-2l4 4v2h2l-1-4h15l8-6 4-8 4-16 1-8h-5l5-4 1-1v-10l-1-2-7 1-3 2-10 1-5-2-5 1-4 3-4-1-2-3v-3h6v2l4-2 11-2h17l3 1-2-22-3-14-2-21z" fill="#161778"/>
<path transform="translate(1394,940)" d="m0 0h20l39 4 29 5 24 6 29 9 21 8 26 12 24 12 25 15 25 17 17 13 10 8 7 5v2l4 2 12 11 7 7 8 7 38 38 7 6 7 8 4 3-1 3-4-2-11-1-15-9-17-10-23-15-5-3v30l-1 1-25-2-184-21-106-13-102-11-80-9-57-8-42-6-46-5-22-3 3-3 28-14 22-12 33-16 37-17 34-14 30-11 34-10 26-6 33-6 23-3h11l1 2 1 24 5-2 10-8 18-11z" fill="#FDFDFD"/>
<path transform="translate(1900,508)" d="m0 0h14l16 8 9 8 3 6-1 8 2 9 1 16 2 12h2l2 3v7l-6 10-4 7-4 13-11 9-2 3v7l3 8-2 3v14l13 52 7 38 4 32 1 11v60l-5 22-1 11-4 6-6 1 1 3 2 1v11l-8 11-3 4h-3l1 3v24l4 40 2 36 3 23 12 56 7 26 7 20 8 19 11 6 3 3h9l15-3h5l2 6v13l-2 4-12 5-14 8-6 2-27 1-19 3-7 4-6-2-2-7-4-36-4-16-11-37-10-35-5-19-4 4-12 17-10 11-9 11-18 18-2 3 1 14-4 5v7l16 32-2 5-9 10-5-2-10-11-10-16-10-25-11-35-4-21v-5l2-3h2v-2l11-7 5-5 9-8 8-7 7-7 13-18 10-15 11-18 8-14v-13l-3-23-4-15-7-17-9-10-3-6-3-17 2-13 4-13 2-7h-12l-15 1-1 12-2 4-2 21 1 4 7-1 7-4h2l1-3 2 3-10 12-6 1-10-6-2-3 1-9 6-22 3-7-1-5-2-2 34-1 1-9-39 1-4 1-2-4 15-2 20-2h-19l-13 2-2-1-5-30-2-16-1-26 2-18 4-17 8-21 16-36 13-26 10-17 5-4 11-4h2l2-5 5-10 9-12 3-5-4-9-4-13-1-6v-21l4-12 7-10 8-6z" fill="#D3C9B9"/>
<path transform="translate(284,985)" d="m0 0h10l76 8 44 5 67 8 79 9 60 7 84 9 41 5 88 10 78 8 64 8h17l-4 4-27 15-25 12-29 12-28 10-25 8-27 8-39 9-28 5-37 5-19 2h-15l-22-15-18-13-4-2v29l-1 1h-13l-30-3-37-6-39-9-33-10-31-12-11-4v-2l-5-1-30-15-20-12-16-11-18-14-16-12-13-10-14-12-16-15-10-9-8-8z" fill="#FDFDFD"/>
<path transform="translate(186,284)" d="m0 0h7l12 5 10 7 8 8 2 5 2 17 1 10h-3v4l2 9 4 9v7l-7 17-8 14-9 9-2 3 1 9-2-1-1-7h-2l3 19 7 24 8 32 6 34 4 31 2 29 1 24v22l-2 15-4 15-4 17-3 11h-2l-5 8-9 6-13 7-7 4-9-1-41-13-7-4-3-9-3-17 5-23 3-17v-16l-2-19-4-19-1-7-1-24-1-3-1 1 2 32 2 14 2 9 1 9v13h-20l-11 2-4 1v-2h-6v-3l-2-8-4-24-1-10v-27l2-15 7-25h2l2-9 13-32 11-25 12-23 11-13 12-9 4-5 7-16 3-7 3 1-4-10-3-8-1-6v-20l3-12 6-12 8-7 8-4z" fill="#D3C9B9"/>
<path transform="translate(117,535)" d="m0 0h2l2 3 1 24 4 23 2 10 1 12v16l-3 17-5 24 4 20 2 5 12 5 38 12h6l18-10 10-6 5-8 2-2-1 6-8 11-3 6-1 5v16l4 42 3 42 4 27 11 48 8 31 9 20 5 12v2l9 3v2l5 2 1 1 16-1 8-1 2 3 1 9 10 2 82 9 80 9 99 12 81 9 89 11 85 10 76 9 59 8 39 5 15 2 1 2-17 9h-15l-82-10-70-7-78-9-67-8-77-8-101-12-53-6-43-5-72-8-38-4-9-2-1-3-9 2-17 9-7 1-18-2-17 4-14 1-3-2-3-30-5-26-8-26-13-44-5-18-2-3-8 12-9 11-11 13-7 9-7 7-7 6-4 7 1 12-4 5v8l15 30-1 6-4 6-5 4-5-1-5-4-11-15-8-16-14-41-8-26v-9l6-8 13-10 9-7 9-6 8-8 13-18 10-15 11-18 7-14-2-27-3-18-6-20-4-7-9-6-5-23-5 5-8 9-1 2-7-1-11-10-1-5 4 2h-2l4 4v2h2l-1-4h15l8-6 4-8 4-16 1-8h-5l5-4 1-1v-10l-1-2-7 1-3 2-10 1-5-2-5 1-4 3-4-1-2-3v-3h6v2l4-2 11-2h17l3 1-2-22-3-14-2-21z" fill="#5C6670"/>
<path transform="translate(1846,847)" d="m0 0 1 3-5 21-1 14 3 22 4 5 8 4 42 11 5-1 10-7 10-4 7-4 4-7 1 4-4 6-6 8h-3l1 3v24l4 40 2 36 3 23 12 56 7 26 7 20 8 19 11 6 3 3h9l15-3h5l2 6v13l-2 4-12 5-14 8-6 2-27 1-19 3-7 4-6-2-2-7-4-36-4-16-11-37-10-35-5-19-4 4-12 17-10 11-9 11-18 18-2 3 1 14-4 5v7l16 32-2 5-9 10-5-2-10-11-10-16-10-25-11-35-4-21v-5l2-3h2v-2l11-7 5-5 9-8 8-7 7-7 13-18 10-15 11-18 8-14v-13l-3-23-4-15-7-17-9-10-3-6-3-17 2-13 4-13 2-7h-12l-15 1-1 12-2 4-2 21 1 4 7-1 7-4h2l1-3 2 3-10 12-6 1-10-6-2-3 1-9 6-22 3-7-1-5-2-2 34-1z" fill="#5C6670"/>
<path transform="translate(35,228)" d="m0 0h1992v1043h-2006v-1042zm9 3-19 1-1 6v1025l1 5h2e3l1-1-1-680v-355l-47-1z" fill="#2D2448"/>
<path transform="translate(1035,1053)" d="m0 0 23 3 46 5 99 14 216 24 97 12 108 12 61 7 15 1 1-30 5 2 20 13 15 9 17 10 17 9 7 1 5 4 1 4-34 8-27 8-21 7-8 2v-29l-26-2-48-5-86-11-127-15-85-9-82-10-133-15-44-5-35-5-11-4-6-1 4-4z" fill="#D85C3F"/>
<path transform="translate(290,966)" d="m0 0 11 2 82 9 80 9 99 12 81 9 89 11 85 10 76 9 59 8 39 5 15 2 1 2-17 9h-15l-82-10-70-7-78-9-67-8-77-8-101-12-53-6-43-5-72-8-38-4-9-2-1-3h-2v-3l5-3z" fill="#D85C3F"/>
<path transform="translate(281,984)" d="m0 0h2l7 8 9 9 8 7 15 14 11 9 13 10 16 12 17 13 10 7 19 12 29 15 13 6v2l5 1 13 5 30 11 35 10 31 7 37 6 30 3h13v-30l8 4 19 14 18 12h15l50-6h6l2 2 2 1-1 5-4 4h-2v2l-6 1 4 3-42 5-35 3-9 3-13 10-5 3h-3l-1-7 1-10-36-3-36-5-35-7-29-8-29-10-29-12-24-11-22-11-24-14-15-10-28-21-13-11-14-11-15-13-17-16-6-7-2-5 3-3h3l2-5z" fill="#332A72"/>
<path transform="translate(1900,508)" d="m0 0h14l16 8 9 8 3 6-1 8 2 9 1 16 2 12h2l2 3v7l-6 10-4 7-4 13-11 9-2 3v7l3 8-2 3-1 9h-1v-7h-2l-1-6h-4l-6-11-3-4-5-1 4 10 10 16 1 6h2l4 18 3 8 9 43-2 4-2 2-1 5h-2l-4-13-1-4-1-7-2-4-9-30-11-28-8-16-5-6-2-1 2-4-1-11-1-2-6-1-9 7-4 1 7-14 9-12 3-5-4-9-4-13-1-6v-21l4-12 7-10 8-6z" fill="#EAE6E5"/>
<path transform="translate(1279,936)" d="m0 0h7l-3 7h-2l-2 5h11v2l-44 11-26 8-30 11-26 11-20 9-30 14-31 15-22 12-30 15-24 16-23 13-23 12-33 15-33 13-25 9-42 13-37 9-30 6h-9l-6-1v-1l11-1v-2h2l1-3 3-2 1-4-3 1-1-5 28-5 39-9 34-10 33-11 28-11 29-13 23-12 17-10 3-3 11-6h2v-2l16-8 27-14 28-15 27-14 29-14 34-15 39-15 37-12z" fill="#201263"/>
<path transform="translate(186,284)" d="m0 0h7l12 5 10 7 8 8 2 5 2 17 1 10h-3v4l2 9 4 9v7l-7 17-8 14-9 9-2 3 1 9-2-1-1-7h-2l1 12-2-2-3-7-10-14h-2l5 12 8 14 8 28 5 25v5l-4-3-1-6-5-1v5l-2-3-4-20 1-16-3-6v-3h-3l-1 5-4-1-7-11-5-9-5-2-2 2-5-18-5-1-5 3-6 1-3-2 8-6 5-8 6-15 2-4 3 1-4-10-3-8-1-6v-20l3-12 6-12 8-7 8-4z" fill="#EAE7E6"/>
<path transform="translate(35,228)" d="m0 0h1992l-1 51-1 119-2-3v-163h-2e3l-1 67-1 257h-1l-1-327z" fill="#271F25"/>
<path transform="translate(1166,45)" d="m0 0 12 1 6 5 8 16 7 17 2 3 10-25 4-8 2-8h98l1 7v10l-1 5-3-3-5-13-5-2h-8l-7 2-1 4-1 29 1 13 20-3 3-3 5-16h1v8l3 16-4 2h-104l-12-2-4-8-10-22-6-12-5-6-8-5z" fill="#2C262B"/>
<path transform="translate(281,984)" d="m0 0h2l7 8 9 9 8 7 15 14 11 9 13 10 16 12 17 13 10 7 19 12 29 15 13 6v2l5 1 13 5 30 11 13 4v2l3 1-2 1 26 9 3 5 4 4v2l9 1 15 4 11 2v1h-9l-30-6-29-8-29-10-29-12-24-11-22-11-24-14-15-10-28-21-13-11-14-11-15-13-17-16-6-7-2-5 3-3h3l2-5z" fill="#151678"/>
<path transform="translate(1348,903)" d="m0 0 5 1 10 7 7 4 3 5 3 1 40 2 28 3 24 4-2 3 3 3 5 2 7 1 1 5 3 1v2l-15-2v2l-17-2-39-4h-20l-12 9-19 12-9 7-3-1-1-26-27 3-29 5-11-1-5-1 3-5h2v-4l2-2-2-2 34-7 32-5-1-10z" fill="#332A73"/>
<path transform="translate(87,847)" d="m0 0h3l2 11 10 32 5 18 2 2 2 8v6l-4 5v8l15 30-1 6-4 6-5 4-5-1-5-4-11-15-8-16-14-41-8-26v-9l6-8 13-10z" fill="#49403B"/>
<path transform="translate(1806,1068)" d="m0 0 2 1-2 2 1 9 9 26 6 15 3 9 3 10v7l-4 5v7l16 32-2 5-9 10-5-2-10-11-10-16-10-25-11-35-4-21v-5l2-3h2v-2l11-7 5-5z" fill="#393340"/>
<path transform="translate(1900,508)" d="m0 0h14l16 8 9 8 3 6-1 8 1 7v11l-3-1-3-16-5-5-3-1-1 4-1 20-5 17h-2v-2l-5-1-3-1-1-3-3 1-2 4 2 10v6l-3 4-1-3-1-12-6 1-5 5-3 1-1 4-1-3-4-1-6-19-1-6v-21l4-12 7-10 8-6z" fill="#49413B"/>
<path transform="translate(186,284)" d="m0 0h7l12 5 10 7 8 8 2 5v6h-4-2l-1 2-3-2v-2l-3-1-1-2-2 9v16l-3 4-3 13-5 6-2-1-1-8-1-4-5 2v12l-4-1-2-3-6 2-5 6h-5l-7-14-2-9v-20l3-12 6-12 8-7 8-4z" fill="#4A413C"/>
<path transform="translate(1701,1101)" d="m0 0 5 2 20 13 15 9 17 10 17 9 7 1 5 4 1 4-34 8-27 8-21 7-8 2v-29h-5v-2l-7-1 1-2 8 1h6l3-2v-4l-4-2z" fill="#ED6041"/>
<path transform="translate(1967,1171)" d="m0 0 5 1 8 6h9l15-3h5l2 6v13l-2 4-12 5-14 8-6 2-27 1-19 3-7 4-6-2-2-7-2-19v-15l9 2 8 7 10-5 6-4z" fill="#332E36"/>
<path transform="translate(2025,279)" d="m0 0h1l1 990-4-1-1-681v-224h1l1 32z" fill="#5C6670"/>
<path transform="translate(249,948)" d="m0 0 9 3v2l5 2 1 1 16-1 8-1 2 3v13l-3 6-2 2h-3l-1 3-7 3-16 8-7 1-18-2-17 4-14 1-3-2-3-30v-9l2 3 3 5v3h7l6 3 15-12 19-8z" fill="#49403B"/>
<path transform="translate(922,1098)" d="m0 0 2 1-2 6-7 6-2 3-18 7 10-3 16-6 5-1-3 3-36 14-36 12-31 9-38 9-21 4h-9l-6-1v-1l11-1v-2h2l1-3 3-2 1-4-3 1-1-5 28-5 39-9 34-10 33-11z" fill="#211465"/>
<path transform="translate(23,299)" d="m0 0h1l1 969-4 3v-970z" fill="#596067"/>
<path transform="translate(23,1268)" d="m0 0h798l27 2v1h-826z" fill="#251869"/>
<path transform="translate(961,45)" d="m0 0h17l7 1-1 3-8 2 1 17v26l1 6h9l8-3 4-9 3-7h5l-3 10 1 6 1 2 6-1 4-5 11-32 6-12 1-4 5 1 13 36 5 15 8 1 6-9 8-14 8-11 6-8 3-5-4-2-11 2-6 3-5 9-5-1v-15l3-1h36v6l-6 11-13 20-8 14 1 2h9l9-4 6-12 2-1 1 2v18h-43l-10 1-4-1-2-13-1-5h-2l-5-23-3-4-4 7-6 20-3 12v6l-19 1h-39l-4-2 4-4 5-2v-33l-1-11-7-5z" fill="#322D33"/>
<path transform="translate(1928,533)" d="m0 0 4 1 5 5 3 15h1l1-7h1l1 16 2 12h2l2 3v7l-6 10-4 7-4 13-7 5-6 2v-7l-1-2-8-1-4-4-7-15 1-4 2-1-1-12-1-4 4-6 3 1v3l8 2v2h2l1-8 3-9 1-20z" fill="#EAE7E5"/>
<path transform="translate(221,45)" d="m0 0 99 1 4 3 2 10v6l-4 1-3-9-5-5-7-2h-12l-1 20v22l1 5h12l11-2v-11l-1-2 6-3 2 11v11l-3 1h-40v-3l2-7 2-42-15-1-5 6-11 20-2 5v13l4 5 1 4h-23l4-4 5-2v-11l-3-10-15-24z" fill="#2D262C"/>
<path transform="translate(1672,1025)" d="m0 0 5 2 4 3 7 3 12 10 10 8 10 9 43 43 9 11 9 9 5 10v8l-1 1h-5l-14-13-5-6-8-7-38-38-8-7-13-13h3l1-6-9-8-8-7-4-7z" fill="#342B71"/>
<path transform="translate(1023,1044)" d="m0 0h5v2l-2 1 1 2-1 2 11-4 5 1-1 3-13 7-21 14-23 13-23 12-33 15-7 1-21 8-7 1 2-2 18-7 7-8h2l-1-5 3-3 27-12 23-12 17-10 3-3 11-6h2v-2z" fill="#161779"/>
<path transform="translate(62,875)" d="m0 0 3 3 3 12 4 15 4 8 5 12 2 6h8l3-6 2-10v-17l6 2 2 4h2l2 5 3 9v6l-4 5v8l15 30-1 6-4 6-5 4-5-1-5-4-11-15-8-16-14-41-7-22z" fill="#3A3441"/>
<path transform="translate(119,614)" d="m0 0h5l2 3v10l-4 4 2 1v8l-5 19-4 6-8 6h-14v3h-2v-2l-4-2-1-3h-2l1-5 3-3 5-20-1-6-4-8-1-4 9-5 12 2 8-2z" fill="#E9E6E4"/>
<path transform="translate(210,309)" d="m0 0 5 4 5 6 1 2v13l-5 4-3 9h5l2 4-1 2-1 15 3 1 1 7-6 9-6 10h-6l-6-7-2-4-3-3-1-2-1-14-1 5h-3l-2-4v-8h3v-11l2-2h4l3 8 1 4 4-5 4-15 2-2v-16z" fill="#EBE8E7"/>
<path transform="translate(281,984)" d="m0 0h2l7 8 9 9 8 7 15 14 11 9 13 10 16 12 17 13 10 7 19 12 27 14-4 2-12-5-19-10-15-8-10-9-7-5-9-3-6-5-7-8-10-8-5-3v-2l-5-2-3-1v-2l-5-2-10-9h-1l9 12 5 4 2 6 5 2 11 9v2h2l-1 3-11-9-17-14-13-11-17-16-6-7-2-5 3-3h3l2-5z" fill="#3A2E6D"/>
<path transform="translate(1279,936)" d="m0 0h7l-3 7h-2l-2 5h11v2l-44 11-26 8-30 11-26 11-20 9-30 14-16 8h-7l2-1-1-3 9-6 27-13 16-7 18-8 20-9 12-4 14-3v-2l6-2 10-2 7-3 23-10 3-2-4-2 5-2 1-2z" fill="#16177A"/>
<path transform="translate(1806,1068)" d="m0 0 2 1-2 2-1 4h-2v6h-2l1 9 3 9-1 3 2 1 1 8 2 1 1 8 2 3h-2l-2 4-7-2-3-10v9l2 6 3 3 5 1-1-3h3l1-7 1 4-1 11-4 4-2-2-6-7v-2h-3l-1 5 1 1 2 9 6 18v6l-2 2-8-21-11-35-4-21v-5l2-3h2v-2l11-7 5-5z" fill="#49403B"/>
<path transform="translate(462,49)" d="m0 0h7l6 4 4 5 3 6 1 5v9l-4 12-7 7-5 2h-7l-8-7-4-9v-16l4-10 8-7z" fill="#FCFCFC"/>
<path transform="translate(1460,49)" d="m0 0 9 1 7 5 5 10 1 4v10l-2 8-4 6-6 4-3 1h-9l-6-5-4-8-1-6v-13l6-12 5-4z" fill="#FCFBFB"/>
<path transform="translate(928,45)" d="m0 0h13l7 3 6 8 2 5v6l-4 6-7 5-4 1h-14l1 15 1 3h2l2 5-10 1-11-2v-3l8-2-2-42v-4l-5-2-1-2z" fill="#322C34"/>
<path transform="translate(685,50)" d="m0 0 9 1 8 6 5 10v12l-3 9-5 6-8 4-9-1-7-7-3-7-1-5v-11l4-9 8-7z" fill="#FCFBFB"/>
<path transform="translate(1294,49)" d="m0 0h8l5 2 4 8 3 8 2-4v14l-2 3-5 14-7 3-7 1h-9l-1-2-1-17 1-23 2-5z" fill="#FAF9F8"/>
<path transform="translate(299,49)" d="m0 0h8l9 3 5 7 2 7 1 18-2-4-4 3 1 1v9l-3 3-9 2h-9l-3-1-2-5v-22l1-18 1-2z" fill="#FAF9F8"/>
<path transform="translate(767,49)" d="m0 0h12l6 4 6 10 2 6v11l-4 11-8 6-6 2-10-1-1-1v-45z" fill="#FCFBFB"/>
<path transform="translate(609,44)" d="m0 0 3 3 17 44 6 11v2l-11-1-2-1-5-18-2-6-5-19-4 5-5 11-2 8h13v1h-15l-2 6v12h-34l-2-1 2-6 1-44-7-2v-3l2-1h19l-2 4-4 3-1 10v32l2 4 8 2 5-1 5-10 9-21 7-13 3-9z" fill="#2E292E"/>
<path transform="translate(129,45)" d="m0 0h14l7 3 5 5 3 7-1 7-5 5-3 2 1 7 6 11 5 4 2 6-9 1-6-2-4-10-5-11-4-6 6-2 6-7 1-7-3-6-4-2h-10l-1 1-1 22v17l2 6 5 6-11 1-11-2 4-3 1-3 1-45-4-2v-1z" fill="#37333B"/>
<path transform="translate(53,33)" d="m0 0h52l2 2 3 10 4 3-3 3-3 6-3-1-3-13-4-5-7-2h-7l1 61 9 3 1 3h-29l-5-2 2-2 12-2v-62l-11 2-4 5-3 12-2 2-4-1v-21z" fill="#3A3540"/>
<path transform="translate(1226,49)" d="m0 0h22v45l-2 5-4 1h-10l-5-1-1-3-1-46z" fill="#FBFBFA"/>
<path transform="translate(498,45)" d="m0 0h27l9 2 5 6 2 9-4 8-4 6 1 8 6 9 10 6-1 2-3 1h-15l-2-3-3-15-4-6-4-4 7-3 7-6 1-2v-8l-5-4-3-1h-11l-1 2v44l5 3 3 2-10 2h-9l-4-2 5-6 1-4v-37l-3-5-3-2z" fill="#302B31"/>
<path transform="translate(1256,49)" d="m0 0h21v33l-1 16-2 1h-18l-1-4v-42z" fill="#FBFAF9"/>
<path transform="translate(682,45)" d="m0 0h12l10 5 7 8 4 13v7l-3 11-9 10-9 4h-12l-6-3-7-7-5-11-1-5v-10l4-11 4-5 8-5zm3 5-6 4-6 7-2 6v11l3 10 7 8 4 2 9-1 8-6 4-8 1-4v-12l-5-10-8-6z" fill="#2B2429"/>
<path transform="translate(821,1268)" d="m0 0h364v1l-8 1-1 1h-328l-27-2z" fill="#282029"/>
<path transform="translate(305,1017)" d="m0 0 5 3 9 8 4 2v2l4 1 4 2v2l5 2 13 11 4 4 2 5 9 6v2l5 1 8 4 4 4v2l5 2 9 6 4 2v2l4 2 15 9 7 5v4l4 1-1 2-20-10-24-14-15-10-28-21v-4h-2l-5-5-11-8v-2l-2-1-1-3-7-6-6-8v-2h-2z" fill="#251563"/>
<path transform="translate(256,47)" d="m0 0h60l-2 2 3 2 5 1v-3h2l2 10v6l-4 1-3-9-5-5-7-2h-12l-1 20v22l1 5h12l11-2v-11l-1-2 6-3 2 11v11l-3 1h-40v-3l2-7 2-42-15-1-5 6-8 14-2-1-1-6 4-8 1-4z" fill="#2E282E"/>
<path transform="translate(1832,852)" d="m0 0h10l2 1-1 7-4 13-2 13v5l-3-2-3 4-2-1 2-3-1-1-4 4-8 4h-5l-2-2 1-18 2-8 1-2 1-12 1-1z" fill="#EAE6E5"/>
<path transform="translate(749,45)" d="m0 0h30l7 2 8 7 5 9 1 4v15l-4 11-4 5-5 3-10 1h-26l1-4 4-1v-46l-7-4zm18 4-3 3v45l5 2 9-1 8-4 4-5 3-9v-11l-4-10-6-8-4-2z" fill="#2C262C"/>
<path transform="translate(1967,1171)" d="m0 0 5 1 8 6h9l15-3h5l1 5-6 2v3l-11 4-9 2-11 4-10 2-19 2-7-1-2-1 1-4 12-5 3-1 1-9 1-2z" fill="#483F3B"/>
<path transform="translate(117,535)" d="m0 0h2l2 3 1 24 4 23 2 10 1 12v16l-3 17-5 24 4 20 2 5 12 5 31 10 1 2-17-1-6-2-9-2-4-1-3-5-9-6-5-23-5 5-8 9-1 2-7-1-11-10-1-5 4 2h-2l4 4v2h2l-1-4h15l8-6 4-8 4-16 1-8h-5l5-4 1-1v-10l-1-2-7 1-3 2-10 1-5-2-5 1-4 3-4-1-2-3v-3h6v2l4-2 11-2h17l3 1-2-22-3-14-2-21z" fill="#54575C"/>
<path transform="translate(1558,958)" d="m0 0 9 3 29 14 21 11 22 13 19 12 16 12 10 7-3 1-8-5 6 5 5 8 14 12 1 4-2 3-5-1-2-1v-2l-4-2-14-11-20-15-6-4 2-1-3-6-4-6v-4l-10-6v-2l-12-7-12-6-8-5-22-11-15-6-4-2z" fill="#211363"/>
<path transform="translate(1461,44)" d="m0 0 10 1 8 4 6 8 4 9 1 11-2 10-6 9-8 5-8 2h-11l-6-4-6-8-4-15 1-10 5-13 4-5 6-3zm-1 5-6 4-6 10-1 3v13l2 9 6 8 3 2h9l6-3 5-5 3-5 1-6v-10l-4-11-4-5-5-3z" fill="#2B252A"/>
<path transform="translate(319,984)" d="m0 0 23 2 15 3 21 3 19 1 19 2h4l7-1 5 2 41 4 16 2v2l4-1 2 2 16 2h12l10 2 8-1 7 2h6l5 2 13 2 12 1 3 1 22 1 6 3v1h-14l-101-12-53-6-43-5-72-8v-2l-12-1z" fill="#EA6041"/>
<path transform="translate(470,765)" d="m0 0h7l10 5 5 7 6 5 6-1 1 1 8 1 4-3h2l1 7 1 9-4 4-5 1 4-5-1-6-4-4-6 5v7l2 3-7 1v-13h2v-4l-3-1v2h-2l-2 4-15 11-7 2h-5z" fill="#312B31"/>
<path transform="translate(879,45)" d="m0 0h11l9 2 2 7v9l-4 1-3-5-2-8-10-2-6 2-3 4-1 7 4 4 14 4 10 8 4 5-1 7-6 9-6 3-5 1h-15l-5-2-2-10v-7l2-7 2 1 3 14 3 4 3 1h7l7-2 2-2 1-7-2-4-21-9-4-1-2-4v-11l4-9 4-2z" fill="#2E282D"/>
<path transform="translate(464,44)" d="m0 0 9 1 6 4 7 9 3 6 1 6v12l-4 10-7 8-8 3h-13l-7-4-6-7-4-9-1-5v-11l3-7 7-11 8-4zm-2 5-6 4-5 6-3 8v16l5 10 7 6h7l6-3 6-6 4-12v-9l-3-9-4-6-5-4-2-1z" fill="#2C262B"/>
<path transform="translate(1135,44)" d="m0 0 5 1 13 32 5 15 3 4 9 1 5-5-1-8-1-5v-10l2-9h1l2 25 1 8 3 1 3 5v3h-33l-2-6-3-12-3-1h2l-9-27-5 12-3 9v5l4 2h-6l-3 13v5h-14l5-6 5-10 8-21 6-10z" fill="#2B252A"/>
<path transform="translate(1068,46)" d="m0 0h36v6l-6 11-13 20-8 14 1 2h9l9-4 6-12 2-1 1 2v18h-39l-1-4 6-9 8-14 8-11 6-8 3-5-4-2-11 2-6 3-5 9-5-1v-15z" fill="#2A2328"/>
<path transform="translate(809,46)" d="m0 0h40l2 1 2 6v12l-3 1-2-9-4-5-9-2-10 1-1 1v17l-1 28 14-1 7-2 4-6 2-5 2 1 1 4v10l-2 3-4 1h-17l-6-1-5 2-9-1 1-4 2-4 1-12v-22l-1-10z" fill="#3B3540"/>
<path transform="translate(221,313)" d="m0 0 4 2 3 15v6h-3v4l2 9 4 9v7l-7 17-8 14-9 9-2 3 1 9-2-1-3-8-5-16-6-13-3-9 1-3 1 2 1-5 2 1 1 14 1 4 3 1 5 8 2 2h6l4-8 6-8 1-7-3-3v-15l1-4-6-2 1-7 6-6v-13l-1-6h2z" fill="#D3C9B9"/>
<path transform="translate(196,955)" d="m0 0 2 3 3 5v3h7l6 3 15-12 8-1-1 4-7 4-7 5 1 5 6 4 3 1-1 4-3 2h-4l1 2 6 2-1 2-14 4-14 1-3-2-3-30z" fill="#3A3441"/>
<path transform="translate(1347,731)" d="m0 0 2 1 4 27 1 3 5 4v3h-9v122l-5-2v-117l1-2h-6l-3-4 4-5h2l1-20 2-8z" fill="#5C6671"/>
<path transform="translate(514,49)" d="m0 0h11l6 3 3 3v8l-6 7-6 4-3 1 6 5 3 9 2 11 1 2h-12l-1-2-5-3-1-1v-44z" fill="#FBFAF9"/>
<path transform="translate(23,1268)" d="m0 0h311v1l-44 1-17 1h-251z" fill="#261E23"/>
<path transform="translate(119,614)" d="m0 0h5l2 3v10l-4 4 2 2-20 3-6 1v10l-2 5-1 10-4 5 4 3-2 1v3h-2v-2l-4-2-1-3h-2l1-5 3-3 5-20-1-6-4-8-1-4 9-5 12 2 8-2z" fill="#D3CABA"/>
<path transform="translate(406,45)" d="m0 0h21l4 3 3 12-1 4h-5l-6-12-7-3 1 44 4 6-1 3h-18l-3-3 5-3 5-2v-32l1-12h-7l-5 2-5 15-4-1v-16l1-3 3-1z" fill="#2B252A"/>
<path transform="translate(357,45)" d="m0 0 21 1 2 20-5 1-4-16-2-1h-11l-6 4-6 10-1 3v16l4 8 6 5 2 1h8l8-5 8-13 1 2-3 12-4 6-6 3-5 1h-9l-8-3-7-7-4-11v-16l3-7 7-9 6-4z" fill="#322C33"/>
<path transform="translate(1950,1177)" d="m0 0 4 2h-2l1 5-2 4-14 5-2 4 9 1 21-2 14-4 7-3 14-3 4-1 1-5 4-1 1 2h-2l-1 9-3 5-3 1-2-1-2-4-8 1-13 6-15 3h-13l-18 1-4-4h-9l-1 6h-1l-1-11v-15l9 2 8 7 10-5 6-4z" fill="#393440"/>
<path transform="translate(193,45)" d="m0 0h3l11 27 7 19 5 9-1 3h-10l-2-5-3-13-3-3v-4l-6-20-4 5-5 13-1 8h-2l-2 7v7l2 4h-13l8-20 5-13 9-18z" fill="#2C262B"/>
<path transform="translate(1327,45)" d="m0 0h8l9 9 11 14 13 18 5 6 3 3v6l-2 1-5-2-6-9-11-14-10-13-4-5v-2h-2l1 8v29l5 2 3 4-3 2h-14v-4l3-2 2-36v-7l-5-5z" fill="#2B252A"/>
<path transform="translate(1851,745)" d="m0 0h3l1 9-6 36-3 8v6l6 12-2 16-2 4v-6h-2l-4-28-2-7v-31l3-10h2l2-5z" fill="#FCFCFC"/>
<path transform="translate(1883,1267)" d="m0 0h28l113 1 3 1v2h-225l-2-3z" fill="#37323C"/>
<path transform="translate(1277,50)" d="m0 0 2 2h3l1 3v20l1-14h1v24l1 13 20-3 3-3 5-16h1v8l3 16-4 2h-58v-3l20-1v-16z" fill="#312C32"/>
<path transform="translate(583,834)" d="m0 0h2l2 11 2 21 2 3v7h-6l-1 123h-2l-1-41v-82l-7-4 1-3 4-2z" fill="#D85C3F"/>
<path transform="translate(1410,45)" d="m0 0h12l8 2 5 18-1 3-5-3-6-12-6-3-4-1v46l6 2 4 3v2h-15l-13-1 4-3 7-2v-33l1-11z" fill="#332E33"/>
<path transform="translate(22,919)" d="m0 0h1l1 266 1 83-4 3v-271z" fill="#505156"/>
<path transform="translate(1672,1025)" d="m0 0 5 2 4 3 7 3 12 10 10 8 10 9 43 43 9 11 9 9 3 5-1 2-4-5v-2h-3l-3-4-8-2-9-11-5-6-3-5-13-13-3-1-1-4h-2l-1-4h-2v-2h-2l-7-8-8-7-13-11-14-11-10-8z" fill="#5C656F"/>
<path transform="translate(827,1130)" d="m0 0 6 1-1 3-15 6-11 1-3-1-11 5-6 1-3 3h-2l-2 6-7 3-18 3h-8v-1l11-1v-2h2l1-3 3-2 1-4-3 1-1-5 28-5z" fill="#15177A"/>
<path transform="translate(132,526)" d="m0 0 3 1-3 37-1 26-3 4-4-14-2-11v-30l3-7z" fill="#FCFCFC"/>
<path transform="translate(1805,1161)" d="m0 0 5 2 4 7v3l4 1 4 5v2h2l4 5 2 9h2l1 6-4 5-5-2-10-11-10-16-1-6z" fill="#322C34"/>
<path transform="translate(87,944)" d="m0 0h5v2l4 2 8 6 6 8 2 3 2 9 3 3-2 4-3 2-5-1-5-4-11-15-5-9z" fill="#332D35"/>
<path transform="translate(1787,1107)" d="m0 0h6l5 8v9l2 6 3 3 5 1-1-3h3l1-7 1 4-1 11-4 4-2-2-6-7v-2h-3l-1 5 1 1 2 9 6 18v6l-2 2-8-21-10-32 1-5 2-2z" fill="#4C413C"/>
<path transform="translate(928,49)" d="m0 0h10l6 3 6 9-1 6-9 7-8 2-5-1-1-2v-23z" fill="#FBFAF9"/>
<path transform="translate(866,70)" d="m0 0 19 8 8 4 2 4-1 7-5 4-5 1h-7l-5-3-3-6-2-11-1-1z" fill="#FAF9F8"/>
<path transform="translate(1166,45)" d="m0 0 12 1 6 5 8 16 7 17 2 3 3-8h1v5h2l-3 11v5h-6l-4-8-10-22-6-12-5-6-8-5z" fill="#2C252B"/>
<path transform="translate(498,45)" d="m0 0h11l2 1v4h2v46l5 3 3 2-10 2h-9l-4-2 5-6 1-4v-37l-3-5-3-2z" fill="#353037"/>
<path transform="translate(147,589)" d="m0 0 12 5 15 10 14 10 4 7v9l-1 1h-11l-15-5-15-8-3-4 1-4 21 11 10 4h8l-1-7-11-8-21-12-7-5z" fill="#535558"/>
<path transform="translate(1559,1131)" d="m0 0h27l26 3 9 2 28 3 14 2 3 4h-15l-34-4-55-7z" fill="#EB6041"/>
<path transform="translate(664,63)" d="m0 0h5l3 1v14l3 10 7 8 9 1 6-3 4-1 5-6 3 1v5l-8 7-7 3h-12l-6-3-7-7-5-11-1-5v-10z" fill="#353037"/>
<path transform="translate(210,309)" d="m0 0 5 4 5 6 1 2v13l-5 4-2 4h-2v6h-2l-1 4-6 9-5 1 1-6 3-4 4-15 2-2v-16z" fill="#F9F8F7"/>
<path transform="translate(256,47)" d="m0 0h60l-2 2 3 2 5 1v-3h2l2 10v6l-4 1-3-9-5-5-7-2h-12l-1 20-2 14-2-2 1-9v-12l-3-1-1 3v-13l-16-1-5 6-8 14-2-1-1-6 4-8 1-4z" fill="#292227"/>
<path transform="translate(1220,58)" d="m0 0h1v26l-1 12-2 3-3 1h-10l-2-2 2-10 10-24z" fill="#FAF9F8"/>
<path transform="translate(961,45)" d="m0 0h17l7 1-1 3-8 2 1 17v28l-4 4h-6l-3-3 5-2v-33l-1-11-7-5z" fill="#3C3843"/>
<path transform="translate(281,984)" d="m0 0h2l7 8 9 9 8 7 15 14 11 9 13 10 2 2-5-1-5-3v-2l-5-2-14-10-14-11-5-4v-2h-2l-4-5-5-5-1-3-5-1-1 6 3 3v2l3 1v3l-3 1-7-7-4-8 3-3h3l2-5z" fill="#5C6670"/>
<path transform="translate(1836,838)" d="m0 0h8l3 3-1 7-1 1h-36l-5-3-2-6 5-1z" fill="#E5E1DF"/>
<path transform="translate(131,49)" d="m0 0h10l6 4 2 5-1 7-8 9-7 1-4-2v-22z" fill="#FBFAFA"/>
<path transform="translate(1838,766)" d="m0 0h1l1 25 3 11 5 38-4-1-37 1-4 1-2-4 15-2 6-1h19l1-5-4-18-1-7v-37z" fill="#4E4B4A"/>
<path transform="translate(1860,812)" d="m0 0 9 2 24 13 12 8 3 3v14l-6 2-15-4-25-12-3-4 8 1 10 4 23 10 4-1v-10l-14-8-25-13-5-2z" fill="#4C4B4F"/>
<path transform="translate(286,960)" d="m0 0h2l2 6-1 7-4 5h-3l-1 3-7 3-16 8-7 1-5-2 1-2h4v2h3l1-6-3-2v-2l4-2 8-2 3-4h7l5-2h4v-2h2z" fill="#373037"/>
<path transform="translate(167,330)" d="m0 0h2l4 5 3 11 5 5-2 5-5 4-2 3h-5l-7-14-1-3v-11l2 1 2 6 2-10z" fill="#332D36"/>
<path transform="translate(1185,1268)" d="m0 0h126v2h8v1h-143l1-2z" fill="#2A2146"/>
<path transform="translate(879,45)" d="m0 0h11l9 2 2 7v9l-4 1-3-5-2-8-10-2-6 2-3 4-1 7 7 7 1 5 2 2-7-1-7-3-3-4v-11l4-9 4-2z" fill="#2D272C"/>
<path transform="translate(22,232)" d="m0 0h3l-1 67-1 257h-1z" fill="#3F383D"/>
<path transform="translate(181,354)" d="m0 0 4 2 1 14h2l3 9 6 13 3 8v6l-1 2-4-2-1-5-3-1-5-10-2-15-6-8h-4l-1-7 6-5z" fill="#FAF9F8"/>
<path transform="translate(1928,533)" d="m0 0 4 1 5 5 1 19-5 8-1 3h-2l-2 4h-5l1-14 1-2 1-20z" fill="#FBFAF9"/>
<path transform="translate(243,47)" d="m0 0 15 1 3 3-4 9-7 14-5-5-6-10-4-10z" fill="#FAFAF9"/>
<path transform="translate(474,769)" d="m0 0 5 1 8 7 7 6-1 4-14 10-4 3-2-1v-27z" fill="#FBFAFA"/>
<path transform="translate(2025,232)" d="m0 0h1v47l-1 119-2-3v-162z" fill="#3E3A45"/>
<path transform="translate(557,45)" d="m0 0h19l-2 4-4 3-2 20-1 2-1 21 1 4h-4l-4 2 2-6 1-44-7-2v-3z" fill="#352F38"/>
<path transform="translate(23,899)" d="m0 0h1v286h-1l-1-247h-1v-38z" fill="#5D6771"/>
<path transform="translate(578,778)" d="m0 0h4l5 5 4 3v7l-5 8-4 2h-6l-3-2 1-19z" fill="#312B31"/>
<path transform="translate(217,680)" d="m0 0 1 4-6 9-5 7-2 8v16l2 23v12l-2-4-1-9-2-6-3-26-4-9v-2h-3l1-3 17-9 4-5z" fill="#3D3945"/>
<path transform="translate(213,973)" d="m0 0 1 2 3 1 2 5-3 5-3 1v3h10v3l-14 3h-7l-3-2v-13z" fill="#332E35"/>
<path transform="translate(216,1268)" d="m0 0h118v1l-44 1-17 1h-167v-1l110-1z" fill="#322C34"/>
<path transform="translate(143,70)" d="m0 0 2 2 4 2 1 7 6 11 5 4 2 6-9 1-6-2-4-10-5-11-4-6 6-2z" fill="#3D3842"/>
<path transform="translate(1035,56)" d="m0 0 3 3 4 15 1 10-19 2 3-12 4-13z" fill="#F9F8F7"/>
<path transform="translate(1815,859)" d="m0 0h1v7l-2 4-2 21 1 4 7-1 7-4h2l1-3 2 3-10 12-6 1-10-6-2-3 1-9 6-22 3-1z" fill="#BBB5AB"/>
<path transform="translate(696,780)" d="m0 0h7l3 2-2 18-1 1h-9l-5-1-1-3-1-15z" fill="#353137"/>
<path transform="translate(1347,731)" d="m0 0 2 1 4 27 1 3 5 4v3h-12l-7 1-3-4 4-5h2l1-20 2-8z" fill="#251A5E"/>
<path transform="translate(1256,46)" d="m0 0h59l1 7v10l-1 5-3-3-5-13-5-2h-8l-7 2-2 9-1 16-2-4v-21l-4 1-1-4 1-1-22-1z" fill="#2C262C"/>
<path transform="translate(228,555)" d="m0 0h1l2 23 1 24v22l-2 15-4 15-3 12-2 4-5 1-1-8 3-6 3-2 6-15 1-10z" fill="#5A626A"/>
<path transform="translate(1787,1267)" d="m0 0h25v1l22 1v1l-32 1h-130v-1l29-1 76-1z" fill="#332A6E"/>
<path transform="translate(193,57)" d="m0 0 2 1 7 23-2 2-5 2-11-1v-8l6-15z" fill="#ECEBEA"/>
<path transform="translate(583,834)" d="m0 0h2l2 11 2 21 2 3v7h-10l-7-4 1-3 4-2z" fill="#C65C43"/>
<path transform="translate(1136,55)" d="m0 0 2 1 6 18 2 9-2 1h-11l-5-2 1-9 5-13z" fill="#F7F6F4"/>
<path transform="translate(1986,1203)" d="m0 0 1 3-4 4-3 2-3 1h-27l-8-2 1-3 8-3 10-1h23z" fill="#393340"/>
<path transform="translate(928,45)" d="m0 0h13l7 3 6 8 2 5v6l-4 6-2 2h-3v-3l-2-1 4-6-1-6-5-7-5-2h-10l-2 1-1 18h-1l-1-9v-10z" fill="#2F292E"/>
<path transform="translate(1923,1268)" d="m0 0h101l3 1v2h-69l-35-1z" fill="#322C34"/>
<path transform="translate(609,58)" d="m0 0 2 1 5 19v5l-4 1-13-1 1-8 8-16z" fill="#F9F8F7"/>
<path transform="translate(357,45)" d="m0 0 21 1 2 20-5 1-4-16-2-1h-11l-6 4-4 6h-2v-4l-4-1 6-7z" fill="#2D282D"/>
<path transform="translate(129,45)" d="m0 0h14l7 3 5 5 3 7-1 7-6 6h-8l3-7 2-3-1-8-4-4-2-1-9-1v-1h8v-2h-11z" fill="#3A3540"/>
<path transform="translate(22,1096)" d="m0 0h1l2 172-4 3z" fill="#3C3640"/>
<path transform="translate(1934,904)" d="m0 0 1 4-4 6-6 8h-3l1 3-1 29-2-4-2-14-3-7-2-2-7-1 1-3 8-5 8-3 7-4z" fill="#3C3844"/>
<path transform="translate(850,83)" d="m0 0 2 1 1 4v10l-2 3-4 1h-17l-6-1-5 2-9-1 1-4 3-1v2l23-3 7-2 4-6z" fill="#302A2F"/>
<path transform="translate(1277,50)" d="m0 0 2 2h3l1 3v19l-1 2v11l2 9v3h-6l-2-1v-16z" fill="#3C3843"/>
<path transform="translate(531,75)" d="m0 0h1l2 9 6 9 10 6-1 2-3 1h-15l-2-3-3-15 1-4 2-1z" fill="#332E35"/>
<path transform="translate(1103,82)" d="m0 0 2 2v18h-39l4-2 1-5 5-4 2 4-1 3 1 1h9l9-4 6-12z" fill="#38333B"/>
<path transform="translate(1820,1162)" d="m0 0 4 2 1-2 10 19 5 10-2 5-5 4-2-8-7-15-4-13z" fill="#49423D"/>
<path transform="translate(1937,543)" d="m0 0h1l2 11h1l1-7h1l1 16 3 14-1 2-5-1v-3l-4-1h-10l3-5h2l1-5 4-6z" fill="#D3CABA"/>
<path transform="translate(1334,55)" d="m0 0 4 2h-2l1 8v29l5 2 3 4-3 2h-14v-4l3-2 2-36z" fill="#2E292F"/>
<path transform="translate(381,79)" d="m0 0 1 2-3 12-4 6-6 3-5 1h-9l-8-3-4-5 2-4 3 2h3l6 4h8l8-5z" fill="#302B30"/>
<path transform="translate(132,526)" d="m0 0 3 1-3 37-1 26-3 4-4-14-1-9 2 2 2-15 3-7 2-13v-8l-2-3z" fill="#E9E6E4"/>
<path transform="translate(221,313)" d="m0 0 4 2 3 15v6h-3v4l2 11-7-6-1 1h-5l-1-4 3-5 4-3v-13l-1-6h2z" fill="#D59D88"/>
<path transform="translate(1908,566)" d="m0 0 3 1v3l8 2v2h2l-2 5-3 1-8 1 2 19 2 10-3-4-6-13 1-4 2-1-1-12-1-4z" fill="#CEC5B6"/>
<path transform="translate(147,610)" d="m0 0 16 8 16 7v2h8l4 2v2h-11l-15-5-15-8-3-4z" fill="#4E4A48"/>
<path transform="translate(1128,65)" d="m0 0 1 3h2l-2 9v5l4 2h-6l-3 13v5h-14l5-6 5-10z" fill="#322D33"/>
<path transform="translate(147,767)" d="m0 0h2l3 13 7 27 7 33v5h-2l-9-36-5-23-2-5-1-6-4 3 2-6z" fill="#39333F"/>
<path transform="translate(1175,60)" d="m0 0h1l2 25 1 8 3 1 3 5v3h-19v-2h-2v-2l7-2 4-4-1-8-1-5v-10z" fill="#474449"/>
<path transform="translate(1846,847)" d="m0 0 1 3-5 21-2 16-3-3 1-11 4-13 2-7h-12l-15 1-2 6-2 2 1-9-3-4 34-1z" fill="#515254"/>
<path transform="translate(757,51)" d="m0 0h1v26l1-4 3 1 1 2v-19h1l1 41-8 1-3-2h2z" fill="#3E383F"/>
<path transform="translate(408,62)" d="m0 0h1l1 21 1 2 2-1v8l4 2 3 5-1 3h-18l-3-3 5-3 5-2z" fill="#39343B"/>
<path transform="translate(1410,45)" d="m0 0h12l8 2 5 18-1 3-5-3-6-12-6-3h-4l-3 5-2 1v-7z" fill="#2E282D"/>
<path transform="translate(105,940)" d="m0 0h3l13 24 1 6-1 3h-4l-4-9-5-7v-3h-2l-2-10z" fill="#4A423D"/>
<path transform="translate(184,64)" d="m0 0 2 4-2 16h-2l-2 7v7l2 4h-13l8-20 5-13z" fill="#2C252B"/>
<path transform="translate(190,345)" d="m0 0h4l3 8 1 4 1 2-5 5v9l1 10-3-4-1-14-1 5h-3l-2-4v-8h3v-11z" fill="#D4CABB"/>
<path transform="translate(120,59)" d="m0 0h1l1 25 3 1 2 5h2l2 6 5 6-11 1-11-2 4-3 1-3z" fill="#3E3B46"/>
<path transform="translate(1899,576)" d="m0 0 4 1 1 21h-4l-3-6-9-3-1-5 4-1 2-4z" fill="#F7F6F4"/>
<path transform="translate(1948,578)" d="m0 0h2v7l-6 10-4 7-4 13-4 3-2-1 8-27 4-4 1-3z" fill="#CDC4B6"/>
<path transform="translate(1808,1181)" d="m0 0 6 1v2h2v2l5 2 7 6 1 7h2l-1 4h-4l-6-5-8-10-4-6z" fill="#282126"/>
<path transform="translate(749,45)" d="m0 0h14l2 1v3l2 1h-2l-1 7-1 19-2-1-2-2 1 4h-2v-26l-5-2-4-2z" fill="#363038"/>
<path transform="translate(1849,780)" d="m0 0h1l-1 10-3 8v6l6 12-2 16-2 4v-6h-2l-4-28-1-6 3-1 4-10z" fill="#E7E3E0"/>
<path transform="translate(1768,1117)" d="m0 0 6 2 2 4h3l4 6 2 1 1 3v8l-1 1h-5l-4-4-4-9h2l-4-7-3-4z" fill="#44353F"/>
<path transform="translate(1389,672)" d="m0 0 3 1-2 9v5l2 2 4 1 1-13v-3l5 2 1 4-2 11-6 2h-11l1-6 1-3-1-2v-8z" fill="#302B32"/>
<path transform="translate(1067,1072)" d="m0 0 20 1 13 1 17 4 1 2-17-1h-18l-12-2-7-3z" fill="#EC6041"/>
<path transform="translate(123,685)" d="m0 0 1 2h2l3 3 16 6 25 8 1 2-17-1-6-2-9-2-4-1-3-5-9-6z" fill="#3D3843"/>
<path transform="translate(406,45)" d="m0 0h6l-2 10h-1v-5h-7l-5 2-5 15-4-1v-16l1-3 3-1z" fill="#343036"/>
<path transform="translate(1068,46)" d="m0 0h27v1l-17 5-5 5-3 6-5-1v-15z" fill="#3B3541"/>
<path transform="translate(833,62)" d="m0 0h5l1 6-1 6 4 2 1 4-2 4-6 1-5-6 1-15z" fill="#4A4442"/>
<path transform="translate(1185,1268)" d="m0 0h67v1l-14 1v1h-62l1-2z" fill="#2A2144"/>
<path transform="translate(85,666)" d="m0 0 4 2h-2l4 4v2h2l-1-4h15l6-3h3l-1 3-8 7-3 5-7-1-11-10z" fill="#656D76"/>
<path transform="translate(1358,940)" d="m0 0 2 3 2 20-8 6h-2v-19l4-4z" fill="#1F1366"/>
<path transform="translate(526,779)" d="m0 0 7 1v9l-1 2v6l4 1v2h-2l-1 9-4 1-2-3-1-15z" fill="#342F36"/>
<path transform="translate(117,535)" d="m0 0h2l2 3 1 24 4 23 2 10v5l-2-3-2 3-2-14-2-9-2-21z" fill="#565A5F"/>
<path transform="translate(644,1021)" d="m0 0h10l22 2 2 1v3l-2 1-19-1-19-2-3-2 1-1z" fill="#EB6041"/>
<path transform="translate(105,612)" d="m0 0h17l3 1-1 2-7 1-3 2-10 1-5-2-5 1-4 3-4-1-2-3v-3h6v2l4-2z" fill="#515051"/>
<path transform="translate(879,68)" d="m0 0 9 1 6 4 5 5-1 5h-5l-10-5-3-2-2-3z" fill="#353038"/>
<path transform="translate(826,46)" d="m0 0h23l2 1 2 6v12l-3 1-2-9-4-5-9-2h-11z" fill="#2D282E"/>
<path transform="translate(1394,45)" d="m0 0h14l-1 3-10 4-10 13-4 2 1-6 5-10v-2l-3-2z" fill="#322E33"/>
<path transform="translate(961,45)" d="m0 0h17l7 1-1 3-8 2-2 4-2 11v9h-1l-3-24-7-5z" fill="#38343C"/>
<path transform="translate(622,79)" d="m0 0 4 4 5 12 4 7v2l-11-1-2-1-2-8v-5l2-1 2 4-2-9-1-3z" fill="#2B252B"/>
<path transform="translate(827,1130)" d="m0 0 6 1-1 3-15 6-11 1-2-1v-2h-7v-1z" fill="#1B1B75"/>
<path transform="translate(97,33)" d="m0 0h8l2 2 3 10 4 3-3 3-3 6-3-1-3-13-5-7z" fill="#2C252A"/>
<path transform="translate(1558,958)" d="m0 0 9 3 29 14 21 11 22 13 6 4-4 1-5-2-10-8-11-6-9-5-19-10-11-5-10-5-8-3z" fill="#373137"/>
<path transform="translate(1296,62)" d="m0 0 3 1 3 12 4 6 1 2-9-1-6-3-1-3 3-13z" fill="#4C4643"/>
<path transform="translate(1368,45)" d="m0 0h8l5 1v2l-5 4-2 9v29l-2-3-2-29-2-9z" fill="#363136"/>
<path transform="translate(1384,1109)" d="m0 0 22 1 16 2-1 3-10 1-29-3-5-1v-1z" fill="#EC6041"/>
<path transform="translate(23,846)" d="m0 0h1v53l-3 1v-53z" fill="#565A5F"/>
<path transform="translate(286,50)" d="m0 0h1l1 10 4 1v12l-1 9-1 3-4 1-1 3v-18z" fill="#352F37"/>
<path transform="translate(1320,1101)" d="m0 0 25 2 11 2v3h-20l-10-1-9-3z" fill="#EB6041"/>
<path transform="translate(303,64)" d="m0 0h6l2 12 3 6-11 1-2-2v-7z" fill="#413D46"/>
<path transform="translate(511,785)" d="m0 0 5 5 1 6-4 5v1h-10l3-2-2-2v-7z" fill="#F8F7F6"/>
<path transform="translate(1301,673)" d="m0 0h6v4l-3 4v9h5l2-14h3v10l-2 6-6 2-6-1v-18z" fill="#312B31"/>
<path transform="translate(1780,1094)" d="m0 0 4 5 5 1 3 1 5 9-1 3-3-4v-2h-6l1 7-3 1-1 3-2-6-2-9z" fill="#3B3641"/>
<path transform="translate(256,47)" d="m0 0h26v2h-11l-5 6-8 14-2-1-1-6 4-8 1-4z" fill="#2D272D"/>
<path transform="translate(1950,1177)" d="m0 0 4 2h-2l1 5-2 4-9 3h-8l2-4 1-3 10-6z" fill="#3A333F"/>
<path transform="translate(912,46)" d="m0 0h15l-3 4v25l-3 1-1 5h-1l-1-31-5-2z" fill="#39353D"/>
<path transform="translate(601,779)" d="m0 0 5 1-2 19-1 2h-8l2-6 1-14z" fill="#2C262B"/>
<path transform="translate(1914,1178)" d="m0 0 9 2 8 7 3 1-5 4-7 1-3-3-4-7z" fill="#49403A"/>
<path transform="translate(251,82)" d="m0 0h1l1 11 4 5 1 4h-23l4-4 5-2 1-3h5z" fill="#423F47"/>
<path transform="translate(926,84)" d="m0 0h1l1 10 1 3h2l2 5-10 1-11-2v-3l8-2v-5h5z" fill="#312C31"/>
<path transform="translate(1645 1e3)" d="m0 0 5 2 19 13 15 11-3 1-7-5-8-3-6-4v-2l-5-2-8-6z" fill="#413E6C"/>
<path transform="translate(186,395)" d="m0 0 4 5 10 15 1 11-4-3-3-4-8-15-2-7h2z" fill="#D4CABA"/>
<path transform="translate(1873,1009)" d="m0 0 2 4 6 27 3 14v8h-2l-5-21-4-26z" fill="#393340"/>
<path transform="translate(1173,970)" d="m0 0 2 1-12 6-25 11-8 4-23 11-8 4-4-1 39-19 34-15z" fill="#322E34"/>
<path transform="translate(629,778)" d="m0 0 4 4v11l-2 9h-8l3-9 1-12z" fill="#3F3C45"/>
<path transform="translate(1412,50)" d="m0 0h1v44h-1l-1-16h-3v-17h-1v-9l2 3z" fill="#3C3844"/>
<path transform="translate(427,46)" d="m0 0 4 2 3 12-1 4h-5l-6-12-4-3 3-2z" fill="#2B242A"/>
<path transform="translate(1704,1056)" d="m0 0 3 1v2l4 2 37 37 1 3-4-2-11-11v-2l-4-2-15-15-8-7-3-4z" fill="#1E0F64"/>
<path transform="translate(1336,672)" d="m0 0h5l1 1v21h-6l-1-1v-20z" fill="#353138"/>
<path transform="translate(1912,610)" d="m0 0 10 2 2 3-1 7 4-3 2 1-6 7-1 7-3-4-4-12-3-5z" fill="#CAC2B4"/>
<path transform="translate(448,58)" d="m0 0 3 1-2 8-1 11-3 4-1-4h-4v-11l2-6 1 2h2l2-4z" fill="#3D3945"/>
<path transform="translate(641,779)" d="m0 0h6l3 4-2 5h-2l1 8 2 1-1 5h-6l-1-13z" fill="#39363B"/>
<path transform="translate(510,78)" d="m0 0 2 3 1 15 5 3 3 2-10 2h-9l-2-1 2-4h3l4 1-1-18z" fill="#2C252C"/>
<path transform="translate(1859,834)" d="m0 0 8 1 10 4 16 7-4 2-4-1-7-1-17-9z" fill="#525254"/>
<path transform="translate(679,779)" d="m0 0h4l-1 4v13l1 3 3 2-1 1h-6l-3-3-1-7v-9z" fill="#312C32"/>
<path transform="translate(1428,672)" d="m0 0h5l2 4v13l1 4h-10l-4-2 4-4v3l3-2v-14l-2-1z" fill="#353138"/>
<path transform="translate(1035,1053)" d="m0 0 9 1 2 2-9 2-9 3h-2l-1 4 5 1 1 3-5 1-5-2-6-1 4-4z" fill="#EB6041"/>
<path transform="translate(1830,887)" d="m0 0 2 3-10 12-6 1-10-6-2-4 6 3h6l11-6h2z" fill="#5A6169"/>
<path transform="translate(809,46)" d="m0 0h17l-2 6-1 10h-1l-1-6-3 1-1 3h-3l-1-10z" fill="#484243"/>
<path transform="translate(153,90)" d="m0 0h2l5 5 3 7-9 1-6-2-1-8h5z" fill="#342F37"/>
<path transform="translate(1446,64)" d="m0 0h1l2 26h-2v4l-3-1-3-8v-6h2l1-11z" fill="#2B2429"/>
<path transform="translate(75,34)" d="m0 0h8v32h-1l-2-13-1-7-2-1v7h-1z" fill="#322C34"/>
<path transform="translate(1410,671)" d="m0 0 5 1 2 3v14l-2 4h-6v-3l2-1v-10l-2-4z" fill="#2F292E"/>
<path transform="translate(1347,731)" d="m0 0 2 1 3 18v7h-5l-1-3 1-9-2-1v10h-1v-13l2-8z" fill="#2C2268"/>
<path transform="translate(816,70)" d="m0 0 2 4 4-1v22l-2-1v-3l-2-1 1-2-4 2v-18z" fill="#322C34"/>
<path transform="translate(68,33)" d="m0 0h29l1 4-14-1v61h-1v-63l-15 1z" fill="#49464B"/>
<path transform="translate(1447,88)" d="m0 0h3l6 8 2 1h9l5-1-3 3-7 1-3 1 7 1v1h-11l-6-4-3-3v-7z" fill="#3B373D"/>
<path transform="translate(662,780)" d="m0 0 7 1-2 18-1 2h-5l1-11-1-8z" fill="#2B242A"/>
<path transform="translate(580,782)" d="m0 0h3l3 5-1 10-3 2-5-1v-8z" fill="#F8F6F5"/>
<path transform="translate(1526,1126)" d="m0 0h18l4 1v2l8 1-1 2h-9l-24-3-4-2z" fill="#EA6041"/>
<path transform="translate(1320,674)" d="m0 0h5l2 5-1 7-2 5-1 9-5 1-1-5 4-8v-10z" fill="#2D272D"/>
<path transform="translate(1365,671)" d="m0 0h6l3 5v15l-2 2h-7l2-4 3 1v-11l-3-1-2-4z" fill="#2F2A30"/>
<path transform="translate(1271,668)" d="m0 0h4l1 14 1 9-1 1h-6l-1-2z" fill="#413E48"/>
<path transform="translate(129,45)" d="m0 0h14l7 3 5 5 2 4v5l-3-4-1-4h-2l-1 4h-2l-3-6-4-2-9-1v-1h8v-2h-11z" fill="#3C3840"/>
<path transform="translate(1836,883)" d="m0 0 5 2 3 22 4 5 6 3-1 4-3-1-7-8-3-4-4-20z" fill="#5C656F"/>
<path transform="translate(123,52)" d="m0 0h3v21l-2 6-2-1-1-9v-16z" fill="#38323F"/>
<path transform="translate(612,780)" d="m0 0h2v3l9-2-4 13-2 4-5 2 1-12h-2z" fill="#45444C"/>
<path transform="translate(545,769)" d="m0 0h5l6 8 1 4-3 16v2l-4-2-1-4 3-5v-10l-4-5-4-2z" fill="#342F34"/>
<path transform="translate(1354,673)" d="m0 0h5l-2 17 1 4-8-1 3-19z" fill="#363239"/>
<path transform="translate(1267,659)" d="m0 0h13l2 1-2 5-2 2h-7l-7-4v-3z" fill="#2F292E"/>
<path transform="translate(251,46)" d="m0 0h69l3 3-1 3-7-1-2-3h-64z" fill="#49494E"/>
<path transform="translate(268,976)" d="m0 0 8 1 3 3h-2v2l-13 7-3-1 2-1 1-7h2z" fill="#271F24"/>
<path transform="translate(322,79)" d="m0 0h1l2 11v9l-8 1 1-4-2-1h2v-11l-1-2z" fill="#363239"/>
<path transform="translate(1250,52)" d="m0 0h2l1 32v15l-3 1z" fill="#37313C"/>
<path transform="translate(697,781)" d="m0 0 4 1v11l-4 5-5 1 2-15z" fill="#F5F4F2"/>
<path transform="translate(1314,76)" d="m0 0h1v8l2 14-2 1h-8l-1-4 3-3z" fill="#3F3C43"/>
<path transform="translate(1e3 81)" d="m0 0h5l-3 10 1 7-3 2-5-1-2-2 4-9z" fill="#453F3E"/>
<path transform="translate(23,811)" d="m0 0h1v35l-3 1v-35z" fill="#5C656E"/>
<path transform="translate(1883,585)" d="m0 0h3l4 6 3 3 4 12v5l-4-1-3-8-2-7-4-6z" fill="#D4CABA"/>
<path transform="translate(1822,834)" d="m0 0h11l7 1-4 2h-9l-5-1v2l4 1-19 1-4 1-2-4 15-2z" fill="#48464B"/>
<path transform="translate(1447,57)" d="m0 0 2 2-1 7-2-1-3 14h-2l-1 2-1-11 3-10 4-2z" fill="#332E36"/>
<path transform="translate(561,782)" d="m0 0h4v3l2 1v8l-2 7-2 1h-6l4-8z" fill="#37343B"/>
<path transform="translate(163,346)" d="m0 0 5 5 4 3v5l2 1-2 3h-5l-6-12z" fill="#39333D"/>
<path transform="translate(2025,232)" d="m0 0h1v47l-1 5h-1l-1-51z" fill="#413B42"/>
<path transform="translate(1909,920)" d="m0 0v3l-7 5-8-1-12-3-1-2h10l7-1 7 1z" fill="#E6E2DE"/>
<path transform="translate(1408,60)" d="m0 0 1 2v16l3-4v19l-5 2v-34z" fill="#2F2930"/>
<path transform="translate(505,64)" d="m0 0h1l1 18h2v17l-6-1-4 4v-3l4-4 1-4z" fill="#43414B"/>
<path transform="translate(1941,875)" d="m0 0h1v11l-3 5-8 2v-8l5-2h3v-7z" fill="#504E4E"/>
<path transform="translate(407,95)" d="m0 0 2 2 7 1v-2l3 1 1 4-1 1h-18l-3-3 2-2z" fill="#322D32"/>
<path transform="translate(814,82)" d="m0 0h1l1 7 3-1 2 6 1-11h1v14h8v1l-17 1v-2l-2-1 1-2z" fill="#444149"/>
<path transform="translate(531,69)" d="m0 0 4 4-8 8-2 1-5-5-2-3 7-3z" fill="#353039"/>
<path transform="translate(121,46)" d="m0 0h19v2l-8 1-3 4-2 4-1-5-5 1-1-3-4-2v-1z" fill="#353037"/>
<path transform="translate(539,780)" d="m0 0 4 1 3 5-1 7-1 1-2 4-5 1 2-7z" fill="#2E282D"/>
<path transform="translate(101,914)" d="m0 0 4 1 2 2-1 13-1 6h-1v-5h-2l-2-8z" fill="#322C34"/>
<path transform="translate(76,83)" d="m0 0h1l1 13v3l5 1v2l-17 1-5-2 2-2 10-2 2-1z" fill="#322C35"/>
<path transform="translate(567,72)" d="m0 0h1l1 22 2 4 2 1v2l-3 1h-9v-3h3 2l-1-10 1-15z" fill="#282126"/>
<path transform="translate(944,70)" d="m0 0 2 1 2 5-7 3h-14l1-4 10-1z" fill="#3C383F"/>
<path transform="translate(1823,753)" d="m0 0h11l7 1h3l-2 3h-2l-1 3-2-1v-2l-14 1-5-1 2-3z" fill="#5B636B"/>
<path transform="translate(1763,1138)" d="m0 0h9l4 2h3l1 1h6l1 8-5-3-9-2-10-5z" fill="#E5E1DC"/>
<path transform="translate(62,875)" d="m0 0 3 3 3 12 4 15v3l-2 1-8-25z" fill="#3E3A45"/>
<path transform="translate(1811,849)" d="m0 0h17l10 2v1l-21 2-2 6-2 2 1-9z" fill="#626971"/>
<path transform="translate(1252,1268)" d="m0 0h21v2l-2 1h-33l-1-2z" fill="#281E4A"/>
<path transform="translate(584,859)" d="m0 0 2 1 1 12 2 1 2 3h-10l-2-1 2-7 1-7h2z" fill="#51423B"/>
<path transform="translate(1817,832)" d="m0 0h19l4 2-18 1-18 3-3-1 4-3z" fill="#E9E6E2"/>
<path transform="translate(498,45)" d="m0 0h11l2 1v4h2l-1 16h-1l-1-5-1 10h-1l-1-23 1-2-10 1z" fill="#3F3C47"/>
<path transform="translate(1709,1113)" d="m0 0 4 1 12 7-2 2-12-1v-2h-2l-1-6z" fill="#D85C3F"/>
<path transform="translate(319,984)" d="m0 0 23 2 9 3v1l-19-1-12-2z" fill="#EF6142"/>
<path transform="translate(1288,673)" d="m0 0h7l-1 5-1 14h-4z" fill="#302B30"/>
<path transform="translate(499,46)" d="m0 0h9v25l-2 2-2-19-3-5-2-1z" fill="#332D34"/>
<path transform="translate(1177,92)" d="m0 0 5 2 2 4v3h-14l2-4z" fill="#272025"/>
<path transform="translate(706,87)" d="m0 0 3 1v5l-8 7-7 1 1-2h2l-1-4 5-2z" fill="#322C33"/>
<path transform="translate(1068,51)" d="m0 0h10l-6 8-2 4-5-1 1-10z" fill="#565A5E"/>
<path transform="translate(322,49)" d="m0 0h2l2 10v6l-4 1-3-9-2-5h5z" fill="#2E292D"/>
<path transform="translate(196,955)" d="m0 0 2 3 3 5v3h7l5 3 1 2-7-1-4 1-2-1v-3h-2l-1 5h-1l-1-8z" fill="#494342"/>
<path transform="translate(199,417)" d="m0 0 3 4 2 7v11l2 8v5l-2-3-7-25 1-2 2 3z" fill="#5D6771"/>
<path transform="translate(1838,766)" d="m0 0h1l1 25 2 11-2-1v-5h-2v8h-1v-37z" fill="#5D6771"/>
<path transform="translate(961,45)" d="m0 0h17l7 1-1 3h-12l-4 2-7-5z" fill="#36333A"/>
<path transform="translate(147,610)" d="m0 0 15 7v2l9 5-4 1-13-7-5-2-2-2z" fill="#5B636C"/>
<path transform="translate(221,313)" d="m0 0 4 2 3 15-1 3-3-4-2-1-3-9v-4h2z" fill="#CF745C"/>
<path transform="translate(332,989)" d="m0 0h25l20 3v2l-16-1-29-3z" fill="#E25E40"/>
<path transform="translate(103,33)" d="m0 0 4 2 3 10 4 3-3 3-2 3-2-7-3-3-2-9z" fill="#413F46"/>
<path transform="translate(358,1051)" d="m0 0 7 4 14 11 10 7 5 4-5-1-14-10-11-8v-2l-5-2z" fill="#73554F"/>
<path transform="translate(1713,1132)" d="m0 0h2v2h2l1 6-2 3-4 1-5-5 1-4h4z" fill="#D85C3F"/>
<path transform="translate(1934,904)" d="m0 0 1 4-4 6-6 8h-3l-2 2-1-5-1-2 7-3 5-3z" fill="#4C4F5A"/>
<path transform="translate(1882,846)" d="m0 0h7l1 1 7 1 9 2-2 4-14-3-8-4z" fill="#423F46"/>
<path transform="translate(582,780)" d="m0 0 9 6v7l-3 6-3-3v-9l-2-5-2-1z" fill="#373239"/>
<path transform="translate(752,98)" d="m0 0h17l6 1-1 2-6 1h-17z" fill="#2B2429"/>
<path transform="translate(1049,95)" d="m0 0 1 2 4 1 1-3h2v2l8 2v2l-9 2-7-1z" fill="#2F2A2F"/>
<path transform="translate(1888,1085)" d="m0 0 3 4 4 16 3 8v7l-2-1-8-28z" fill="#43424E"/>
<path transform="translate(343,991)" d="m0 0h9l42 5v1h-15l-21-3-15-2z" fill="#E2DCD5"/>
<path transform="translate(921,56)" d="m0 0 2 1 1 18-3 1-1 5h-1v-24z" fill="#3E3A46"/>
<path transform="translate(192,345)" d="m0 0h2l2 4v7l-2 4-3-1-2-7 1-5z" fill="#F6F4F3"/>
<path transform="translate(850,83)" d="m0 0 2 1 1 4v10l-2-3-4 4-4-1 2-4z" fill="#3A363E"/>
<path transform="translate(1128,65)" d="m0 0 1 3h2l-2 9-1 5h-2l-3 3h-2l3-10z" fill="#363037"/>
<path transform="translate(531,75)" d="m0 0h1l2 9v4l-3 1v3h-3l-2-8 1-4 2-1z" fill="#2C262B"/>
<path transform="translate(557,45)" d="m0 0h19l-2 4-4 3-1 10h-1l-1-10-2-4 1-1-9-1z" fill="#43434B"/>
<path transform="translate(2e3 1268)" d="m0 0h21l3 1v2h-23l-4-2z" fill="#241C21"/>
<path transform="translate(1895,829)" d="m0 0 9 5 4 4v14l-3-1-2-2 1-1v-10l-10-6z" fill="#535456"/>
<path transform="translate(1126,1079)" d="m0 0 17 1 12 1 4 2v1h-19v-1l-14-2z" fill="#EF6142"/>
<path transform="translate(1583,972)" d="m0 0 6 1 17 9 9 5 2 3-6-2-22-12-6-3z" fill="#2B2171"/>
<path transform="translate(184,64)" d="m0 0 2 4-2 16-2-3-4 1 2-9z" fill="#38343C"/>
<path transform="translate(327,1034)" d="m0 0 4 1v2l5 2 13 11 4 4-1 2-6-4v-2l-5-2-5-5-6-5v-2l-3-1z" fill="#11137C"/>
<path transform="translate(1857,918)" d="m0 0 10 1 15 4 1 2h-11l-8-3-7-3z" fill="#403C49"/>
<path transform="translate(652,784)" d="m0 0h2l-1 12-1 4-3 1-1-4-2 3v-12l3 1 1 3 1-1z" fill="#ACA9A5"/>
<path transform="translate(1938,535)" d="m0 0h2l2 10v11l-3-1-3-17z" fill="#5D6771"/>
<path transform="translate(541,95)" d="m0 0 5 1 4 4-4 2h-15v-3h8l2-2z" fill="#302A30"/>
<path transform="translate(926,84)" d="m0 0h1l1 10v4l-2 2-6-1v-2l-2-1h2v-5h5z" fill="#413D47"/>
<path transform="translate(466,1114)" d="m0 0 10 3 25 9 10 3-4 1-17-5-24-9z" fill="#453738"/>
<path transform="translate(1907,588)" d="m0 0 2 3 2 12 1 7-3-4-6-13 1-4h2z" fill="#D4CABA"/>
<path transform="translate(593,91)" d="m0 0h1l1 11h-25l3-2h17l-1-4 1-2h3z" fill="#3C3840"/>
<path transform="translate(665,80)" d="m0 0h2l6 14 3 3 3 1v2l11 1v1h-11l-8-7-5-8z" fill="#2B2429"/>
<path transform="translate(341,56)" d="m0 0h5l1 6-2 5-1 11h-1l-1-9h-3l2-7 1-3 1-1z" fill="#3F3C48"/>
<path transform="translate(1700,1100)" d="m0 0 2 1-1 30-1 1-15-1v-1h14v-2h-2l1-4 1-2z" fill="#E3DED8"/>
<path transform="translate(1645 1e3)" d="m0 0 5 2 13 9-4 2-7-4-5-4z" fill="#352D61"/>
<path transform="translate(641,779)" d="m0 0h6l3 4-2 5h-2v5h-1l-1-9h-2v5h-1z" fill="#464449"/>
<path transform="translate(125,589)" d="m0 0h1l2 11v22h-1v-7h-2z" fill="#423E42"/>
<path transform="translate(1974,1209)" d="m0 0h7l-1 3-3 1h-17l-1-2 2-1z" fill="#342E36"/>
<path transform="translate(1220,84)" d="m0 0h1l1 5h1l1 11-4-1-1 3h-9l-6-1 1-2h10l3-1 1-2z" fill="#46474F"/>
<path transform="translate(1922,563)" d="m0 0 1 3-2 8h-2v-2l-5-1-3-1-1-4h9z" fill="#5D6771"/>
<path transform="translate(201,294)" d="m0 0 6 2 5 3 4 6v3l-6-2-3-5z" fill="#352E36"/>
<path transform="translate(344,91)" d="m0 0 4 2h3l4 4h-2v5l-6-2-4-5z" fill="#39343B"/>
<path transform="translate(670,54)" d="m0 0 4 4-1 6-4 1-4-1 1-6z" fill="#292227"/>
<path transform="translate(1345,744)" d="m0 0h5l-3 4v8l6 1v2l-9 2-1-1v-5l1-1z" fill="#292329"/>
<path transform="translate(128,607)" d="m0 0h1v16l-2 10-3 4v-5h-5l5-4 1-1v-12h2z" fill="#4F5054"/>
<path transform="translate(22,232)" d="m0 0h3l-1 28-2 1z" fill="#4B4C55"/>
<path transform="translate(675,48)" d="m0 0 2 1v1l3 1-1 4-5 5-4-5v-3z" fill="#332E34"/>
<path transform="translate(649,1169)" d="m0 0 2 1 1 7-2 3h2l1 6-5 1-1-7z" fill="#291E68"/>
<path transform="translate(1356,946)" d="m0 0 1 4-1 2h-2l-1 7 6 2-2 3-5 5v-19z" fill="#11137B"/>
<path transform="translate(629,778)" d="m0 0 4 4v11l-2 2v-5l-3 1v-12z" fill="#363037"/>
<path transform="translate(526,779)" d="m0 0 7 1v9l-4 4-1-4v-4h2v-3h-2l-1 2z" fill="#2F292E"/>
<path transform="translate(975,95)" d="m0 0 3 2 1 5h-19l3-4 10 1z" fill="#282024"/>
<path transform="translate(1334,55)" d="m0 0 4 2h-2l1 8-1 14h-1l-1-6h-1v-13z" fill="#353138"/>
<path transform="translate(1219,1268)" d="m0 0h33v1l-14 1v1l-19-1z" fill="#312B34"/>
<path transform="translate(578,778)" d="m0 0h4l-1 4-3 8-1 7h-1l-1-6v-11z" fill="#2E272D"/>
<path transform="translate(1389,672)" d="m0 0 3 1-2 9-1 2h-3l-1-2v-8z" fill="#2E292F"/>
<path transform="translate(925,51)" d="m0 0h1l1 30-2 4v-12h-2v-13h1z" fill="#302931"/>
<path transform="translate(1698,1147)" d="m0 0 1 2h2l1 7-3 15h-1v-22h-5v-1z" fill="#D85C3F"/>
<path transform="translate(924,1111)" d="m0 0 2 1-10 5-18 7h-2l1-3 12-4 12-5z" fill="#2D2468"/>
<path transform="translate(1347,745)" d="m0 0h4l1 5v7h-5l-1-3z" fill="#211365"/>
<path transform="translate(812,97)" d="m0 0h2v2l10-1v3l-5 2-9-1 1-4z" fill="#322D34"/>
<path transform="translate(75,34)" d="m0 0h8v10l-3-2h-4z" fill="#241C21"/>
<path transform="translate(1247,94)" d="m0 0 2 4-2 2 1 2h-21v-3h15l4-1z" fill="#454145"/>
<path transform="translate(1103,82)" d="m0 0 2 2v7l-1 5-2-1v-2l-4 1 1-6z" fill="#39343A"/>
<path transform="translate(1068,46)" d="m0 0h27v1l-6 2h-22l-1-2z" fill="#37333A"/>
<path transform="translate(1915,616)" d="m0 0h5l1 2 1 16-3-4-4-12z" fill="#5D6771"/>
<path transform="translate(1175,60)" d="m0 0h1v24h-2l-1-5v-10z" fill="#363238"/>
<path transform="translate(1104,91)" d="m0 0h1v8l-9 1-2-4 4-3h4l1 2z" fill="#49423E"/>
<path transform="translate(341,57)" d="m0 0h3v2h-2l-2 9-2 2-1 12h-1v-16l3-7z" fill="#363138"/>
<path transform="translate(1814,1145)" d="m0 0h3l2 6h3v8l-5-3-3-5z" fill="#322C34"/>
<path transform="translate(106,911)" d="m0 0 4 4 1 9-5 5v-12l-1-5z" fill="#4B4643"/>
<path transform="translate(689,781)" d="m0 0 3 2-1 12 2 5h-4l-1-3-1-15z" fill="#423F48"/>
<path transform="translate(1903,573)" d="m0 0 3 4 1 11-3 4-1-3-1-12-1-2h2z" fill="#5D6771"/>
<path transform="translate(190,364)" d="m0 0 2 1 1 14 1 6-2-2-4-8-1-8 2 2z" fill="#5F6872"/>
<path transform="translate(178,92)" d="m0 0h1l2 7 1 3h-13l4-2 2-5h2z" fill="#373137"/>
<path transform="translate(1940,1184)" d="m0 0 4 1 1 5-3 1h-8l2-4z" fill="#322C34"/>
<path transform="translate(232,956)" d="m0 0h5l-1 4-4 3h-7l4-6z" fill="#342E37"/>
<path transform="translate(1301,673)" d="m0 0h6v4l-3 4-1 5-2-2-1-9z" fill="#38343A"/>
<path transform="translate(147,589)" d="m0 0 10 4 2 7-5-2-7-5z" fill="#504F4F"/>
<path transform="translate(618,72)" d="m0 0 2 4 2 3 3 10-1 4-3-4-2 1 1-4-1-1-2-12z" fill="#322D35"/>
<path transform="translate(1672,1025)" d="m0 0 5 2 4 3 7 3 3 3v2l-5-1-13-10z" fill="#4E516F"/>
<path transform="translate(576,1015)" d="m0 0h8l8 2v2l-16-1-9-1v-1z" fill="#E45E40"/>
<path transform="translate(694,96)" d="m0 0 3 1v2l-2 1 2 2-3 1h-12v-1h8v-2l-5-1v-1z" fill="#3F3B41"/>
<path transform="translate(555,46)" d="m0 0h12l-1 4 1 4h-3v-3l-9-2z" fill="#2C262C"/>
<path transform="translate(664,787)" d="m0 0 2 3 1 9-1 2h-5l1-9z" fill="#342F37"/>
<path transform="translate(1119,88)" d="m0 0h1l1 13h-8l2-5z" fill="#2F282E"/>
<path transform="translate(337,70)" d="m0 0h1l4 21 1 3-3-1-3-7z" fill="#2A2329"/>
<path transform="translate(1442,941)" d="m0 0 14 1 9 2v1h-12l-9-1-2-1z" fill="#1C1E7A"/>
<path transform="translate(1841,834)" d="m0 0 3 1-1 3-7 1h-10l-4-1v-2h14z" fill="#434047"/>
<path transform="translate(1091,97)" d="m0 0h4l1 2h5 4v3h-14l-2-2h2z" fill="#342E35"/>
<path transform="translate(1406,63)" d="m0 0h1l1 36-6-1 4-2z" fill="#4B4B50"/>
<path transform="translate(1256,46)" d="m0 0h33v1l-7 1-3 5-2-4 1-1-22-1z" fill="#332D37"/>
<path transform="translate(1846,847)" d="m0 0 1 3-2 3-14-2-3-2 17-1z" fill="#4B4441"/>
<path transform="translate(692,782)" d="m0 0h2l1 5-2 10h-2l-1-7 1-7z" fill="#2D272D"/>
<path transform="translate(1918,519)" d="m0 0 6 2 7 5 1 6-5-3-1-3-4-2v-2l-4-2z" fill="#2E272D"/>
<path transform="translate(1355,680)" d="m0 0h1l2 14-8-1 2-9h1l1 5z" fill="#322E35"/>
<path transform="translate(1427,675)" d="m0 0h1v6h2v7l-4 2-1-5 1-9z" fill="#B8BABB"/>
<path transform="translate(512,97)" d="m0 0 9 3-2 2-8 1h-9v-1l7-2z" fill="#3E3E46"/>
<path transform="translate(241,97)" d="m0 0h7l2 1v2l4 1h-17z" fill="#292227"/>
<path transform="translate(1135,52)" d="m0 0 2 3-5 13h-3l1-7z" fill="#332D34"/>
<path transform="translate(993,98)" d="m0 0 9 1 3-1-1 4h-16l3-1v-2z" fill="#272025"/>
<path transform="translate(1558,958)" d="m0 0 9 3 17 8-3 1-9-4-10-4-4-2z" fill="#3A3543"/>
<path transform="translate(1836,879)" d="m0 0 1 4v8l-3-2-3 4-2-1 2-3-2-1v-2l5-3z" fill="#D2C9BB"/>
<path transform="translate(1121,89)" d="m0 0h1l1 5 1 3v5h-14l3-2 8 1-1-3v-7z" fill="#494546"/>
<path transform="translate(973,79)" d="m0 0h1v18l-5 2-5-1 4-2 4-5z" fill="#4A423F"/>
<path transform="translate(389,54)" d="m0 0 2 4h2l1-3v7l-2 5h-3z" fill="#292227"/>
<path transform="translate(1357,916)" d="m0 0 2 1v3h10l1 2-20 1v-3l7 1z" fill="#5D6771"/>
<path transform="translate(210,542)" d="m0 0 2 4 4 16v6l-2-3-4-18z" fill="#5D6771"/>
<path transform="translate(219,335)" d="m0 0 2 1-4 5 3-1-1 6h-5l-1-4 3-5z" fill="#716568"/>
<path transform="translate(97,33)" d="m0 0h6l1 2h-2l2 4v7l-2-3-5-7z" fill="#2B2327"/>
<path transform="translate(322,1037)" d="m0 0 7 4v2l4 2 7 6h-3l-14-10v-2l-2-1z" fill="#11137C"/>
<path transform="translate(1139,985)" d="m0 0 3 1-20 10-4-1z" fill="#2F282B"/>
<path transform="translate(1867,983)" d="m0 0 2 4 2 8-1 4-3-8-6 5 2-5z" fill="#3E3B46"/>
<path transform="translate(562,793)" d="m0 0 3 2v6l-2 1h-6z" fill="#2E282F"/>
<path transform="translate(1851,745)" d="m0 0h3l1 9-2 13h-1v-17l-4-3z" fill="#EBE8E7"/>
<path transform="translate(120,98)" d="m0 0 9 1 5 2v1l-9 1-6-2z" fill="#343037"/>
<path transform="translate(765,1158)" d="m0 0 7 1v1l-11 2h-9l2-2z" fill="#271E68"/>
<path transform="translate(125,632)" d="m0 0h1v8l-3 14-3-1 4-16z" fill="#515050"/>
<path transform="translate(1315,91)" d="m0 0h1l1 7-7 1-1-2 3-5z" fill="#3B3742"/>
<path transform="translate(508,71)" d="m0 0h2v7l-3 9h-1v-14z" fill="#37313E"/>
<path transform="translate(1785,1148)" d="m0 0 3 3v2l-8 2h-5l1-2z" fill="#D85C3F"/>
<path transform="translate(328,1046)" d="m0 0 5 1 6 5v2h2l-1 3-11-9z" fill="#5C3A58"/>
<path transform="translate(1860,812)" d="m0 0 9 2 4 3-4 2-9-4z" fill="#515152"/>
<path transform="translate(132,526)" d="m0 0 3 1-2 23-2 1 1-21-2-3z" fill="#EBE8E7"/>
<path transform="translate(159,335)" d="m0 0 2 1 2 8v7h-2l-2-5z" fill="#39333B"/>
<path transform="translate(740,1161)" d="m0 0 4 1-1 2-3 1h-13l2-2z" fill="#1A1977"/>
<path transform="translate(559,1156)" d="m0 0 10 2 11 2v1h-9l-11-2z" fill="#212379"/>
<path transform="translate(552,788)" d="m0 0 3 2-1 9-4-2-1-4z" fill="#37343A"/>
<path transform="translate(168,356)" d="m0 0 6 3-2 4h-5l-2-5z" fill="#4B4541"/>
<path transform="translate(421,47)" d="m0 0h6v5l-3 3-6-6z" fill="#342F37"/>
<path transform="translate(84,614)" d="m0 0h6v2l2 1h-2l1 3-4 1-3-4z" fill="#5D6771"/>
<path transform="translate(194,385)" d="m0 0 2 1 3 6 2 3 1 10-2-2-6-16z" fill="#5D6771"/>
<path transform="translate(221,324)" d="m0 0 3 4 2 1 2 4-1 4-2-1v-2h-4z" fill="#D8D0C3"/>
<path transform="translate(1256,99)" d="m0 0h18v2l-18 1z" fill="#45454D"/>
<path transform="translate(246,83)" d="m0 0 5 4v7h-5l-1-1v-6l2 2z" fill="#322C34"/>
<path transform="translate(333,1033)" d="m0 0 4 1 11 8-4 1-6-4v-2l-5-2z" fill="#5E5656"/>
<path transform="translate(1470,945)" d="m0 0 13 1 1 2-7 1-7-2z" fill="#1C1D79"/>
<path transform="translate(1353,762)" d="m0 0 5 3 1 4-7-1-1-2-5-1v-1h7z" fill="#342D70"/>
<path transform="translate(1631,998)" d="m0 0h6l8 5-4 1-5-2z" fill="#342C5A"/>
<path transform="translate(108,533)" d="m0 0h8v3l-11 1v-3z" fill="#5D6771"/>
<path transform="translate(1285,96)" d="m0 0h1v5l-12 1v-4h10z" fill="#2E282E"/>
<path transform="translate(158,96)" d="m0 0h3l2 6-9 1-2-2 5-1z" fill="#322E33"/>
<path transform="translate(350,50)" d="m0 0 2 1-1 4-3 5h-2v-4l-2-1 3-1v-2z" fill="#342F38"/>
<path transform="translate(1068,51)" d="m0 0h10l-6 7-2-4h-4v-2z" fill="#4F4C4C"/>
<path transform="translate(1893,1103)" d="m0 0 2 2 3 8v7l-2-1-3-10z" fill="#413E4B"/>
<path transform="translate(1274,673)" d="m0 0h1l1 16h-3v-11z" fill="#4D4846"/>
<path transform="translate(103,615)" d="m0 0h11l2 2-8 2-4-1 1-2z" fill="#5D6771"/>
<path transform="translate(1908,566)" d="m0 0 3 1-1 7h-3v-2h-2l2-5z" fill="#E6E2DE"/>
<path transform="translate(1410,93)" d="m0 0 5 2 2 2-5 2h-4l-1-3z" fill="#37323A"/>
<path transform="translate(412,93)" d="m0 0 5 1 1 2h-2v2h-7v-3z" fill="#4A423D"/>
<path transform="translate(184,64)" d="m0 0 2 4-1 8-4-1 1-6z" fill="#343036"/>
<path transform="translate(927,46)" d="m0 0m-1 1m-1 1 1 3-1 18h-1l-1-9v-10z" fill="#241C21"/>
<path transform="translate(423,1094)" d="m0 0 6 2 6 3-4 2-7-3z" fill="#6C3B4E"/>
<path transform="translate(1494,951)" d="m0 0 13 2 5 2v2l-9-2-9-3z" fill="#2F2768"/>
<path transform="translate(170,703)" d="m0 0 15 1v2l-2 1-9-1-4-1z" fill="#E2DCD5"/>
<path transform="translate(1267,662)" d="m0 0h10l-3 2h-2v2h6v1h-7l-6-3z" fill="#3C3941"/>
<path transform="translate(549,98)" d="m0 0h8l2 1v2l2 1h-7l-5-1z" fill="#E8E5E3"/>
<path transform="translate(912,46)" d="m0 0h10l-1 4-3 1-6-4z" fill="#2B2429"/>
<path transform="translate(910,1114)" d="m0 0m-2 1h2l-1 3-12 4-4-1z" fill="#11137C"/>
<path transform="translate(1296,946)" d="m0 0h9l-1 2-10 2h-4l1-3z" fill="#242678"/>
<path transform="translate(1808,845)" d="m0 0 19 2v1h-18z" fill="#FBFBFA"/>
<path transform="translate(123,685)" d="m0 0 1 2h2l3 3 7 3-2 1-1 2-10-7z" fill="#4C4C52"/>
<path transform="translate(187,349)" d="m0 0h1l1 10-4-1-3-5 5-2z" fill="#5D6771"/>
<path transform="translate(1089,98)" d="m0 0h2v4h-14l1-3h9z" fill="#494444"/>
<path transform="translate(103,33)" d="m0 0 4 2 2 9h-2l-1-3-4-3z" fill="#3F3C44"/>
<path transform="translate(1934,904)" d="m0 0 1 4-4 6-4 4v-5l5-5z" fill="#464756"/>
<path transform="translate(539,792)" d="m0 0h3v2h2l-2 4-5 1z" fill="#353239"/>
<path transform="translate(1368,679)" d="m0 0h2l1 6-1 5-3-1z" fill="#9B9EA1"/>
<path transform="translate(181,354)" d="m0 0 4 2-1 2-2-1-1 4-1-4-7 5 2-4z" fill="#E1DBD3"/>
<path transform="translate(187,293)" d="m0 0 2 1-10 8-4 2 2-4 8-6z" fill="#5D6771"/>
<path transform="translate(1440,66)" d="m0 0h3v8l-4 2z" fill="#413E4A"/>
<path transform="translate(1935,891)" d="m0 0h4l-2 12h-1v-7l-3-1v-3z" fill="#E7E3DF"/>
<path transform="translate(1838,873)" d="m0 0h2v14l-3-3z" fill="#443E3F"/>
<path transform="translate(1407,52)" d="m0 0 2 3 3-2v7l-5 1z" fill="#38333B"/>
<path transform="translate(431,51)" d="m0 0 2 4 1 8-2 1-3-7v-4h2z" fill="#3E3C44"/>
<path transform="translate(230,45)" d="m0 0h4v10l-4-4z" fill="#38343C"/>
<path transform="translate(1705,1067)" d="m0 0 5 1 5 9-4-2-6-6z" fill="#322B65"/>
<path transform="translate(650,783)" d="m0 0 4 1h-2v7l-3 3-1-7z" fill="#F1EFEC"/>
<path transform="translate(1938,557)" d="m0 0 1 3-3 4-3 7h-2l3-9z" fill="#5D6771"/>
<path transform="translate(1926,537)" d="m0 0h1v23l-3 2 1-5z" fill="#D7CEC0"/>
<path transform="translate(928,97)" d="m0 0h3l2 5h-7l-3-3 4-1z" fill="#37333B"/>
<path transform="translate(448,58)" d="m0 0 3 1-3 9-2-4-1-3z" fill="#37343C"/>
<path transform="translate(498,45)" d="m0 0h11l2 1-1 5-2 2-1-5 1-2-10 1z" fill="#4B4647"/>
<path transform="translate(1351,906)" d="m0 0 5 2 10 7-2 1-4-1v-2l-4-2z" fill="#616A73"/>
<path transform="translate(1894,850)" d="m0 0h12l-2 4-10-3z" fill="#373237"/>
<path transform="translate(1801,837)" d="m0 0h10l5 1v1l-13 2z" fill="#5B656F"/>
<path transform="translate(147,767)" d="m0 0h2l1 4-2 4-5 3 2-6z" fill="#4C4745"/>
<path transform="translate(196,350)" d="m0 0 5 1 1 3-4 4-2-1z" fill="#5C656F"/>
<path transform="translate(163,346)" d="m0 0 2 2 2 3v3h-3l-1 2-2-5z" fill="#4A433F"/>
<path transform="translate(518,99)" d="m0 0h11l2 3h-12z" fill="#E4DFDA"/>
<path transform="translate(377,91)" d="m0 0h2l-2 5-4 4-3-2z" fill="#3B363D"/>
<path transform="translate(1177,92)" d="m0 0 2 1v5l-1 1h-6l2-4z" fill="#332D34"/>
<path transform="translate(344,91)" d="m0 0 4 2h3l-1 3v3l-4-2-2-3z" fill="#48413D"/>
<path transform="translate(441,68)" d="m0 0h2l1 10h-4v-7z" fill="#373239"/>
<path transform="translate(751,46)" d="m0 0h11l-4 1v4l-5-2-2-1z" fill="#282126"/>
<path transform="translate(1843,909)" d="m0 0 4 2 7 4-1 4-3-1-7-8z" fill="#454358"/>
<path transform="translate(586,866)" d="m0 0 4 1 1 2v6l-3-2z" fill="#CA5D44"/>
<path transform="translate(1870,817)" d="m0 0 7 1 2 4-6-1-3-3z" fill="#434046"/>
<path transform="translate(612,780)" d="m0 0h2v3l2 1 1 4h-6z" fill="#49474E"/>
<path transform="translate(217,680)" d="m0 0 1 4-6 9-4-1 5-4z" fill="#4A4C54"/>
<path transform="translate(126,602)" d="m0 0h1l1 7v13h-1v-7h-2z" fill="#261E22"/>
<path transform="translate(1286,98)" d="m0 0h7l1 3-7 1h-9v-1h8z" fill="#3D3942"/>
<path transform="translate(1128,65)" d="m0 0 1 3h2l-1 5h-3l-2 4-1-2z" fill="#454248"/>
<path transform="translate(1342,58)" d="m0 0 5 4 6 8-1 2-8-9z" fill="#322C34"/>
<path transform="translate(1778,1126)" d="m0 0h3l4 4 1 9h-1l-2-7-6-4z" fill="#3F3B6F"/>
<path transform="translate(1671,1022)" d="m0 0 5 2 8 6-3 1-10-7z" fill="#3B356A"/>
<path transform="translate(1515,956)" d="m0 0 10 3 3 1v2l-12-3-3-2z" fill="#2F2769"/>
<path transform="translate(1499,938)" d="m0 0 7 1 4 2h-4v2l-6-2z" fill="#373065"/>
<path transform="translate(1822,834)" d="m0 0h11l7 1-4 2h-5l-3-1-6-1z" fill="#5D6771"/>
<path transform="translate(1336,679)" d="m0 0h3v12l-2-2z" fill="#332D36"/>
<path transform="translate(125,627)" d="m0 0 2 1v5l-3 4v-5h-5l5-4z" fill="#5D6771"/>
<path transform="translate(172,291)" d="m0 0h2l-2 5-4 4h-2l2-5z" fill="#3A353B"/>
<path transform="translate(673,95)" d="m0 0 6 3v2l11 1v1h-11l-6-5z" fill="#2E282F"/>
<path transform="translate(1104,91)" d="m0 0h1v8l-9 1 4-2 1-4-2-1h3l1 2z" fill="#43424E"/>
<path transform="translate(76,83)" d="m0 0h1l1 9-2 4zm-1 13 2 4-5 1z" fill="#2C252C"/>
<path transform="translate(1687,1144)" d="m0 0 8 1 4 2-1 1-8-1-4-2z" fill="#EF6142"/>
<path transform="translate(1358,909)" d="m0 0 5 2 7 4-1 3-11-8z" fill="#3A363C"/>
<path transform="translate(662,780)" d="m0 0 7 1-1 10h-1l-1-5-2-3 1-1z" fill="#464751"/>
<path transform="translate(1322,693)" d="m0 0h1v7l-5 1-1-5h3 2z" fill="#3C3840"/>
<path transform="translate(70,98)" d="m0 0 2 1-4 1 1 3-7-1-1-2z" fill="#43424D"/>
</svg>
