<?xml version="1.0" encoding="UTF-8"?>
<svg version="1.1" viewBox="0 0 908 888" width="180" height="180" xmlns="http://www.w3.org/2000/svg">
<path transform="translate(0)" d="m0 0h908v888h-908z" fill="#F6F8F6"/>
<path transform="translate(98,179)" d="m0 0h4v56l6 1 3 4v2l5 2 13 8 44 26 8 4v-2l12-1v-5l-9-2-1-5 8-1v-6l-5-1-1 3-4-2 1-5h13l2 1 2 16v8l-3 4-10 1 16 10 29 17 27 16 24 14 29 17 27 16 29 17 34 20 10 1 19 1-4 5h-2l1 4 13 8 28 17 24 14 44 26 24 14 13 8 8 5 2-5 13-18 28-38 12-16 14-19 10-14h2l1-4 8-11h2l1-4 10-13 5-9h-7l-2-4 3-2 9-3 8-4 8-7 1-2h2l2-4 6-8 10-13 16-21 9-12 13-17 9-12 5-7h2l4-8-4-1v-3h7v-30l4 1v415l-4-1-1-375-10 14-8 10-9 12-14 18-12 16-16 21-14 18 1 7-2 15-1 2-4-1-2-6-4 2-7 11-9 12-14 19-21 28-7 10-4 6h-2l-1 4h-2l-1 4h-2l-1 4h-2v3h-2l-4 8-5 5-1 3-2 1-1 3-2 1-1 3-2 1-2 4h-2l-1 4h-2l-1 4h-2l-1 4h-2l-1 4h-2l-1 41v59l5 5 1 8h55v38h-1l-1-29-1-3h-31l-20-1-6 1h-11l-5-1-1 1h-9l-7-1h-24l-9 2v35l1 7 1 1h110l11-1 3-3v18h-129v-64h54l1-6h2l1-3h2v-2l2-1v-99l-18-11-28-16-26-15-10-6-48-28-22-13-6-2-1 7-3 2-3-5-6-12-5-6-10-6-11-6-24-14-40-24-11-6-29-17-27-16-25-15-9-5-15-9-11-6-13-8-21-12-12-7-16-10-9-5-14-9v230l-1 123h-6l1-160 1-198z" fill="#605F67"/>
<path transform="translate(643,633)" d="m0 0h1v63h-1l-1-15-2 2-16 1h-105l-2-2-1-7v-30l1-5 11-3h23l6 1h9l5-1 3 1h9l11-1 25 1h21l2 4z" fill="#D5DEDD"/>
<path transform="translate(787,205)" d="m0 0h18v304l-1 70-1 45-3 1-11-2v-2h2v-414h-4z" fill="#CBD9D9"/>
<path transform="translate(86,178)" d="m0 0h17v57h-1v-56h-4l1 63-1 193-1 135-1 25h6v1h-7l-2-4v-59l-1-7-1-1v-8h-2v40l-1 38-2 1v-63l-1-65v-288z" fill="#DCE0DF"/>
<path transform="translate(98,179)" d="m0 0h4v56l6 1 3 4v2l5 2 13 8 44 26 8 4v-2l12-1v-5l-9-2-1-5 8-1v-6l-5-1-1 3-4-2 1-5h13l2 1 2 16v8l-3 4-10 1 16 10 29 17 27 16 24 14 29 17 27 16 29 17 34 20v4l-5-1-6-4-11-6-24-14-40-24-11-6-29-17-27-16-25-15-9-5-15-9-11-6-13-8-21-12-12-7-16-10-9-5-14-9v230l-1 123h-6l1-160 1-198z" fill="#52535C"/>
<path transform="translate(643,633)" d="m0 0h1v63h-1l-1-15-2 2-16 1h-105l-2-2-1-7v-30l1-5 11-3h23l6 1h9l5-1 3 1h9l11-1 25 1h21l2 4zm-126 17v21l4 2 3 1h108l7-1 2-2v-17l-2-2-4-1-44-1z" fill="#A19EA1"/>
<path transform="translate(788,206)" d="m0 0 4 1v415l-4-1-1-375-10 14-8 10-9 12-14 18-12 16-16 21-7 9-4 5-2-1 1-2h-2l3-6h2l2-4 6-8 10-13 16-21 9-12 13-17 9-12 5-7h2l4-8-4-1v-3h7z" fill="#3B424B"/>
<path transform="translate(703,347)" d="m0 0 3 1-1 5-1 4 1 5-2 15-1 2-4-1-2-6-4 2-7 11-9 12-14 19-21 28-7 10-4 6h-2l-1 4h-2l-1 4h-2l-1 4h-2v3h-2l-4 8-5 5-1 3-2 1-1 3-2 1-1 3-2 1-2 4h-2l-1 4h-2l-1 4h-2l-1 4h-2l-1 4h-6l-1-5 7-11 10-13 10-14 28-38 10-13 15-21h2l1-4 8-11h2l1-4 10-13 5-9h-7l-2-4 3-2 9-3 8-4z" fill="#841469"/>
<path transform="translate(101,233)" d="m0 0 1 2 6 1 3 4v2l5 2 13 8 44 26 8 4v-2l12-1v-5l-9-2-1-5 8-1v-6l-5-1-1 3-4-2 1-5h13l2 1 2 16v8l-3 4-10 1 16 10 29 17 27 16 24 14 29 17 27 16 29 17 34 20v4l-5-1-6-4-11-6-24-14-40-24-11-6-29-17-27-16-25-15-9-5-15-9-11-6-13-8-21-12-12-7-16-10-9-5-12-8h-4l-1-2v-6z" fill="#1A1F24"/>
<path transform="translate(401,413)" d="m0 0 29 1-4 5h-2l1 4 13 8 28 17 24 14 44 26 24 14 13 8 7 5v6l-2 1-18-11-28-16-26-15-10-6-48-28-22-13-6-2-1 7-3 2-3-5-6-12-5-7z" fill="#4A8C9F"/>
<path transform="translate(791,242)" d="m0 0 2 2 1 6v50l1 4 1 11v136l-1 28v52l2 34-1 41 1 11-3 6h-5v-2h2z" fill="#B8BBBB"/>
<path transform="translate(97,179)" d="m0 0h1l1 63-1 193-1 135h-1l-1-242-1-18v8l-1 6h-2v16l-1 45-1 15-2 3-1-11v-93l1-29v-14l2-1 1 3v11l3 12 1 9h2z" fill="#C0C9C9"/>
<path transform="translate(420,645)" d="m0 0h11l5 3 4 8v19l-2 7-3 4h-2v2l-2 1h-11l-5-3-5-7v-22l4-8z" fill="#0E0E11"/>
<path transform="translate(605,512)" d="m0 0h17l5 3 2 5v11l3 7v8l-4 6-6 3-8 1-10-2v-41z" fill="#498D9F"/>
<path transform="translate(537,658)" d="m0 0h73l21 1 7 1 2 2-1 5-3 1h-62l-52-1-4-2-1-3 3-3z" fill="#F7F9F7"/>
<path transform="translate(445,645)" d="m0 0 8 1 4 4 8 16 4 7 1-26 1-2h6v44h-8l-10-16-5-10-1-1-1 27h-8v-43z" fill="#0E0E10"/>
<path transform="translate(135,188)" d="m0 0 5 2 6 16 7 18 1 8-1 1h-5l-6-12h-14l-3 5 5 7-1 1 21 1-2 4h-20l-1-4-10-2-1-5 8-23 7-14z" fill="#457587"/>
<path transform="translate(793,205)" d="m0 0h12v304l-1 70-1 45-4-4v-40l3-27 1-63v-16l-1-29v-69l1-89-1-26v-30l-1-18-1-7-6 1z" fill="#DEE2E0"/>
<path transform="translate(603,392)" d="m0 0h15l5 3 2 2v8l-5-4-5-2h-9l-6 4-2 4v13l4 6 5 3h7l2-2 1-8-9-1-2-2 1-5h15l3 1v15l-2 5-3 3-3 1h-14l-8-4-5-6-2-6v-11l3-9 7-6z" fill="#131315"/>
<path transform="translate(101,233)" d="m0 0 1 2 6 1 3 4v2l5 2 13 8 44 26 8 4v-2l12-1v-5l-9-2-1-5 8-1v-6l-5-1-1 3-4-2 1-5h13l2 1 2 16v8l-3 4-10 1 16 10 2 2-7 1-16-9-9-6-18-10-12-7-16-10-9-5-12-8h-4l-1-2v-6z" fill="#1D2228"/>
<path transform="translate(267,655)" d="m0 0h5l4 8 3 13h2l1-7 4-13 4-1 4 4 4 15 2 1 2-10 3-8 2-2 5 1-2 11-4 10-2 11-1 1h-7l-3-3-3-15h-2l-2 10-3 8h-7l-3-4-6-23z" fill="#101012"/>
<path transform="translate(392,645)" d="m0 0h9l1 2 1 23 3 3 2 1-1 4-5 1v10h-7l-1-2v-8h-11l-7-2 1-6 3-6z" fill="#101012"/>
<path transform="translate(102,242)" d="m0 0h1v230l-1 123h-1l-1-129-1-29v-110l2-37z" fill="#65828F"/>
<path transform="translate(438,429)" d="m0 0 9 4 18 10 6 5 8 4 13 4 14 8 14 9 9 8 16 8 7 6 18 12 4 3-1 2-12-7-27-16-24-14-22-13-24-14-23-14-5-4z" fill="#E5F4F1"/>
<path transform="translate(781,236)" d="m0 0h9v10l-4 1-6 9-11 14-9 12-14 18-12 16-16 21-7 9-4 5-2-1 1-2h-2l3-6h2l2-4 6-8 10-13 16-21 9-12 13-17 9-12 5-7h2l4-8-4-1z" fill="#16181D"/>
<path transform="translate(97,435)" d="m0 0 1 3h2l1 28v129h-5z" fill="#515660"/>
<path transform="translate(443,476)" d="m0 0h24l1 1v5l-17 1v11l15 1-1 5-1 1h-14v14h18v6h-25z" fill="#0D0D0F"/>
<path transform="translate(578,625)" d="m0 0 4 1 3 6-1 1h59v38h-1l-1-29-1-3h-31l-20-1-6 1h-11l-5-1-1 1h-9l-7-1h-24l-9 2v5h-1v-7l1-2 54-1v-3l2-4z" fill="#447081"/>
<path transform="translate(210,254)" d="m0 0h9l4 4 1 2 1 15-4 9-3 2h-9l-5-4-2-11v-6l6-10z" fill="#861E6D"/>
<path transform="translate(517,650)" d="m0 0h75l43 1 5 2 1 5-1-2h-102l-21 1z" fill="#C1C4C4"/>
<path transform="translate(642,679)" d="m0 0h1l-1 8-3 1-14 1-77-1-25 1-6-2v-5l2 1h110l11-1z" fill="#447081"/>
<path transform="translate(758,180)" d="m0 0h11l7 4 1 5-3 1-6-3-9 1-5 5-1 2v14l4 7 7 1 9-2h5l-2 5-3 3-4 1h-11l-7-4-5-6-2-13 2-11 6-7z" fill="#447384"/>
<path transform="translate(497,470)" d="m0 0 8 1 53 31 13 8 7 5v6l-2 1-18-11-28-16v-2l-7-5v-2l-5-1-8-5-4-2-4-4-5-2z" fill="#457789"/>
<path transform="translate(578,517)" d="m0 0 1 3h4l-1 41v59l1 3h-4v-2h-2v-100z" fill="#63656D"/>
<path transform="translate(517,668)" d="m0 0 3 1 99 1 20-1 2-1-1 4-1 1-7 1h-108l-6-2z" fill="#C1C4C4"/>
<path transform="translate(126,201)" d="m0 0h1v7h4l1-5 4-2 5 10 1 4-9 2h-5l-1 5-2 4 5 7-1 1 21 1-2 4h-20l-1-4-10-2-1-5 8-23z" fill="#498DA0"/>
<path transform="translate(422,651)" d="m0 0h6l4 5 1 3v16l-4 7-7 1-3-3-2-5v-17z" fill="#F1F3F1"/>
<path transform="translate(605,512)" d="m0 0h17l5 3 2 5v11l3 7v8l-3 5h-4l-1-3 2-3v-8l-4-2-1-5h3v-9h-2l-1-2-3-1v-2l-9 1-1 13v1l-3 4-1-2v-20z" fill="#457687"/>
<path transform="translate(691,255)" d="m0 0h16v5h-8v-2l-2 1v5l10 4 2 4v7l-4 5-6 2-9-1-1-5 12-1 1-5-11-3z" fill="#831468"/>
<path transform="translate(721,254)" d="m0 0 7 1 3 3 1 14 1 6-2 5-8 3-8-1-2-3v-3l12 2 2-4v-3l-9-1-2-1v-5l9-1 1-6h-8l-4 1v-5z" fill="#84186A"/>
<path transform="translate(182,255)" d="m0 0h13l2 1 2 16v8l-3 4-8 1-5-1v-4l10-1v-5l-9-2-1-5 8-1v-6l-5-1-1 3-4-2z" fill="#841268"/>
<path transform="translate(198,297)" d="m0 0h7l26 15 27 16 7 4-4 3-10-5-20-12-14-8-16-10z" fill="#1B1E23"/>
<path transform="translate(578,625)" d="m0 0 4 1 3 6-1 1h59v7l-3-3-69-1 1-3v-4z" fill="#545159"/>
<path transform="translate(128,220)" d="m0 0h14l4 6 2 7h4v2h-23l-1-4-4-6z" fill="#F5F8F6"/>
<path transform="translate(576,621)" d="m0 0h3v2h6l2 2 1 8-5 1 1-3-3-5-5 1-4 3 1 4-2 2h-54v12h-2v-15h53l1-6h2l1-3h2v-2z" fill="#535058"/>
<path transform="translate(515,693)" d="m0 0h127v3h-127z" fill="#161C22"/>
<path transform="translate(347,381)" d="m0 0 10 5 17 10 11 7 11 6 5 3v4l-5-1-6-4-11-6-24-14-9-5-1-4z" fill="#1B2126"/>
<path transform="translate(327,674)" d="m0 0h37v6h-38v-5z" fill="#0E0E11"/>
<path transform="translate(745,193)" d="m0 0h1l1 16 1 2-1 2h2v2h2l1-6 3 4 2 3 7 1 9-2h5l-2 5-3 3-4 1h-11l-7-4-5-6-2-13z" fill="#4C8DA0"/>
<path transform="translate(610,535)" d="m0 0h13l2 2v8l-3 3-5 2h-6l-2-1v-13z" fill="#E9F8F5"/>
<path transform="translate(449,441)" d="m0 0 9 2 13 8 17 10 1 4 5 1v2l-4-1-7-3v-4l-1 2-4-1-23-13-7-4z" fill="#457687"/>
<path transform="translate(98,179)" d="m0 0h4v54l-1 2h-2l-1-21z" fill="#524F57"/>
<path transform="translate(781,236)" d="m0 0h9v10l-4 1-6 9-11 14-4-2 7-11 7-9h2l4-8-4-1z" fill="#17191C"/>
<path transform="translate(231,253)" d="m0 0h9l2 2-1 10-3 4h-7l-3-4v-11z" fill="#851D6C"/>
<path transform="translate(212,259)" d="m0 0 5 1 1 1v18l-2 1h-6l-2-3v-13z" fill="#EFF1F0"/>
<path transform="translate(762,186)" d="m0 0h6l2 2-10 1-5 5v7l5 9 7 2 10 2-4 2-12 2-5-2-4-7v-14l4-6z" fill="#E4F2EF"/>
<path transform="translate(739,254)" d="m0 0h9l3 2v9l-4 3h-9l-1-1v-11z" fill="#831568"/>
<path transform="translate(327,663)" d="m0 0h36v5h-36z" fill="#16171B"/>
<path transform="translate(764,268)" d="m0 0 4 1-1 4-8 10-12 16-6 1 2-4 9-12z" fill="#161B21"/>
<path transform="translate(614,517)" d="m0 0 7 1 2 3v7l-6 2h-7l-1-1v-10z" fill="#CBD9D9"/>
<path transform="translate(263,333)" d="m0 0 5 1 26 15 1 2-1 2-5-1-26-15-2-1v-2z" fill="#191D22"/>
<path transform="translate(788,206)" d="m0 0 4 1v35l-2 4-1-9-1-1z" fill="#2E444F"/>
<path transform="translate(124,226)" d="m0 0 5 5v3l21 1-2 4h-20l-1-4-8-1 3-4z" fill="#E6F4F1"/>
<path transform="translate(135,201)" d="m0 0 3 3 4 11-3 1h-10l1-8 3-6z" fill="#CCDADA"/>
<path transform="translate(576,621)" d="m0 0h3v2h6l2 2 1 8-5 1 1-3-3-5-5 1-4 3 1 4-2 1h-6l3-4 1-4h2l1-3h2v-2z" fill="#242A30"/>
<path transform="translate(627,515)" d="m0 0 3 3 1 14 4 5 1 5-1 8-4 4-6 1-1-2 5-3 2-4v-8l-3-9v-9z" fill="#E1EFEC"/>
<path transform="translate(719,327)" d="m0 0 3 4-6 9-9 11-2-1 1-2h-2l3-6h2l2-4 6-8z" fill="#22262B"/>
<path transform="translate(148,213)" d="m0 0 2 3 4 12-1 5h-5l-4-9 2-4v-2z" fill="#477F91"/>
<path transform="translate(394,654)" d="m0 0h1v18h-10l1-5 3-4z" fill="#E0E3E2"/>
<path transform="translate(243,321)" d="m0 0 5 1 17 10-4 3-10-5-10-6v-2z" fill="#1B2025"/>
<path transform="translate(379,401)" d="m0 0 5 1 17 10v4l-5-1-6-4-7-4-1-3-3-1z" fill="#232A31"/>
<path transform="translate(326,370)" d="m0 0 5 1 15 9 1 5-5-2-14-8-4-4z" fill="#1A1E23"/>
<path transform="translate(144,225)" d="m0 0 2 1 2 7h4v2h-23l-1-2 12-3h2z" fill="#E6F4F1"/>
<path transform="translate(779,251)" d="m0 0h3l-2 5-11 14-4-2 7-11z" fill="#181A1F"/>
<path transform="translate(790,581)" d="m0 0h2v41l-3-1z" fill="#525058"/>
<path transform="translate(592,485)" d="m0 0 5 1-2 6-5 7-4-2-2 1 1-5 2-2z" fill="#ECF9F6"/>
<path transform="translate(578,625)" d="m0 0 4 1 3 6-1 1h-12v-4z" fill="#DFE1E0"/>
<path transform="translate(743,298)" d="m0 0h3l-2 5-9 12h-2l-1-5 8-10z" fill="#181B1F"/>
<path transform="translate(786,207)" d="m0 0h2v27l-2-2v-16l-7-1-1 2-1-3 6-4z" fill="#EEFCF8"/>
<path transform="translate(278,342)" d="m0 0 6 1 11 7-1 3-5-1-10-6z" fill="#171C21"/>
<path transform="translate(751,285)" d="m0 0 5 1-6 9-4 4-5 1 2-4z" fill="#1D2025"/>
<path transform="translate(614,520)" d="m0 0 5 1 1 7-1 1h-7l-1-1v-7z" fill="#EEFDF9"/>
<path transform="translate(740,236)" d="m0 0h24l-1 3h-22z" fill="#23262B"/>
<path transform="translate(165,236)" d="m0 0h23l-1 3h-22z" fill="#26292F"/>
<path transform="translate(101,233)" d="m0 0 1 2 6 1 4 7h-3v-2h-2v2h-6l-1-2v-6z" fill="#141619"/>
<path transform="translate(791,242)" d="m0 0 2 2 1 6-1 50h-1z" fill="#BCBEBF"/>
<path transform="translate(357,236)" d="m0 0h23v2l-2 1h-20z" fill="#65676B"/>
<path transform="translate(186,259)" d="m0 0h5l1 1v6l-1 1h-8v-6h2z" fill="#E7EAE9"/>
<path transform="translate(704,236)" d="m0 0h21l-1 3h-20z" fill="#28292E"/>
<path transform="translate(204,236)" d="m0 0h21v2l-2 1h-18z" fill="#4B4F54"/>
<path transform="translate(128,236)" d="m0 0h18l2 1v2h-20z" fill="#1E242A"/>
<path transform="translate(623,521)" d="m0 0h1v9h-3v2l2 1-1 2h-11l3-5 8-2z" fill="#4A8EA1"/>
<path transform="translate(600,511)" d="m0 0h4v13l-1-3-4-2-1-1v-5z" fill="#EEFDF9"/>
<path transform="translate(546,504)" d="m0 0 5 2 14 8-1 2-5-1-7-5v-2l-6-1z" fill="#E2EFED"/>
<path transform="translate(427,417)" d="m0 0 2 2 3 6 4 3v2l-5-2-8-6 1-3z" fill="#E6F4F1"/>
<path transform="translate(743,256)" d="m0 0 4 2 1 4-3 3h-4l-1-6z" fill="#E0E2E1"/>
<path transform="translate(763,176)" d="m0 0h6l5 4 1 3-6-2-9-1 1-3z" fill="#DFEDEB"/>
<path transform="translate(764,268)" d="m0 0 4 1-1 4-4 4-6 2 2-4z" fill="#1A1E23"/>
<path transform="translate(517,657)" d="m0 0h21l-1 2-18 1-2 2z" fill="#DDE1DF"/>
<path transform="translate(232,314)" d="m0 0 6 2 7 4-4 3-8-4z" fill="#181C21"/>
<path transform="translate(231,255)" d="m0 0 4 1 2 2v5l-5 1z" fill="#E4E5E4"/>
<path transform="translate(728,320)" d="m0 0 2 1-7 10-3-1 1-6 5-2z" fill="#181C20"/>
<path transform="translate(758,180)" d="m0 0h11l4 2-2 1-10-1-9 4-5 4 2-4 6-5z" fill="#4A8EA1"/>
<path transform="translate(334,377)" d="m0 0h7l6 4v3l-2 1-11-7z" fill="#131518"/>
<path transform="translate(148,213)" d="m0 0 2 3 3 8-1 4-6-9z" fill="#4B8DA0"/>
<path transform="translate(629,516)" d="m0 0 4 4v15l-3-3z" fill="#EEFDF9"/>
<path transform="translate(468,459)" d="m0 0 5 2 9 5-3 2-3-1-1-2-7-2z" fill="#E0EDEB"/>
<path transform="translate(134,194)" d="m0 0 2 1 4 10-1 3-3-6-3 1-2 2 2-9z" fill="#4A8EA1"/>
<path transform="translate(198,297)" d="m0 0h7l5 3v2l-4 1-8-5z" fill="#16181D"/>
<path transform="translate(128,220)" d="m0 0h14l1 2-17 1z" fill="#DCEAE8"/>
<path transform="translate(483,460)" d="m0 0 5 1 1 4 5 1v2l-4-1-7-3z" fill="#447283"/>
<path transform="translate(457,495)" d="m0 0h9l-1 5-1 1h-9v-1l8-1 2-3h-4l-1 3h-3z" fill="#2C3037"/>
<path transform="translate(782,245)" d="m0 0 3 1-1 5-6 2-2 1 3-6h2z" fill="#232328"/>
<path transform="translate(619,535)" d="m0 0 5 1 1 1v8l-1 2h-2v-7l-1-3z" fill="#CCDADA"/>
<path transform="translate(320,365)" d="m0 0 8 4-4 3-4-2-1-4z" fill="#1C2329"/>
<path transform="translate(609,516)" d="m0 0h9l-4 2-4 1-1 10h-1v-12z" fill="#4A8EA1"/>
<path transform="translate(779,251)" d="m0 0h3l-2 5-3 2-3-3z" fill="#111418"/>
<path transform="translate(128,235)" d="m0 0h22l-1 3-3-1-18-1z" fill="#89ABB4"/>
<path transform="translate(210,301)" d="m0 0 5 2 1 2-6 1-3-2v-2z" fill="#202328"/>
<path transform="translate(745,193)" d="m0 0h1l1 16 1 2-2 2-2-9z" fill="#4A8EA1"/>
</svg>
