<?xml version="1.0" encoding="UTF-8"?>
<svg version="1.1" viewBox="0 0 2048 989" width="180" height="180" xmlns="http://www.w3.org/2000/svg">
<path transform="translate(0)" d="m0 0h2048v989h-2048z" fill="#FDFDFD"/>
<path transform="translate(1394,516)" d="m0 0 71 1 3-1 9 1 3-1 10 1 4-1 10 2v-2l83 1h427l1 2-7 9-10 9-14 14-4 5-8 7-12 12-5 6-8 7-36 36-7 8-12 11-7 7-7 8-12 11-7 7-6 7-8 7-138 138-7 8-13 12-16 17-10 9-12 13-11 9-4 4-18 1h-551l-18 1h-37l-8 2h-5l1-3 13-2 10-8 12-12 8-7 9-10 8-8 6-5 7-8 16-15 44-44 7-8 5-4 189-189 5-1 2 3 1 16 4-4 13-23 9-16 10-18 8-14 5-6z" fill="#FDFDFD"/>
<path transform="translate(1e3 28)" d="m0 0h3l-1 392v416l50 2-3 2-36-1-12-2 1 52 4-2 28-28 5-4 14-16 8-7 257-257 3-5-1-4-13-3-2-2 8-5 14-7 22-12 24-13 14-8 3-2h634l-2 4-6 5-7 8-11 10-7 8-17 17-8 7-59 59-6 7-8 7-14 15-15 14-8 8-4 5-8 7-200 200-9 6-31 13-16 7-24 10-21 9-1-2 7-12 6-12-8 1h-559v-74l-1-288v-448l-2-1-9 5-10 6-4 1 2-6 7-15 11-25 14-38zm394 488-6 3-7 10-14 26-6 10-14 25-5 8-2 1-1-16-2-3-5 1-185 185-8 7-7 7-7 8-47 47-8 7-10 11-8 7-9 9-7 8-10 9-8 8-7 5-13 2-1 3 9-1 4-1h37l19-1h550l18-1 7-7 11-9 12-13 15-14 9-10 7-7 8-7 12-13 136-136 7-6 7-8 9-9 8-7 11-12 7-7 8-7 11-12 34-34 6-5 7-8 12-12 5-4 7-8 15-15 6-5 4-7-1-1h-435l-75-1v2l-12-2-7 1-6-1-6 1-6-1-7 1z" fill="#E11388"/>
<path transform="translate(38,39)" d="m0 0 2 1-2 32 1 828 6-11 10-17 8-13 14-24 12-21 10-17 15-26 6-10 4-8 24-40 15-26 14-24 6-10 6-11 9-16 10-17 11-19 15-25 4-8 12-21 15-26 28-48 13-22 20-35 15-26 24-42 14-24 9-16 14-24 16-28 15-26 10-19 1-5-24-1 6-7 16-11 13-10 20-15 14-11 10-7 2 1 12 38 14 49v3l-7-2-8-6-4-1-1 16h-7l1-29 2-6-2-25-2-33-7 10-11 19-10 17-14 24-11 20-11 19-14 24-9 15-14 24-12 21-22 38-13 22-13 23-16 27-30 52-13 22-12 21-13 22-15 26-14 24-13 23-16 28-15 26-8 14-16 27-9 16-10 17-6 11-12 21-14 24-17 29-13 23-9 16-9 15-8 12-1 3 170-1 1-1-4-1-8-16-5-8v-2h17l7-2 2 2-2 9-3 6-3 14h256l24-2v-11h4l3 11 97 1 15 3 13-1 17-2h27l3 2-10 4-26 8-35 10-16 4-2-1 9-15 2-4-119 1-15 3-52 16h-2l2-4 9-12 2-4-395-1-1-176v-529l1-99-10 6-7 5h-3l3-11 16-54 6-21z" fill="#FB2E34"/>
<path transform="translate(1390,514)" d="m0 0h634l-2 4-6 5-7 8-11 10-7 8-17 17-8 7-59 59-6 7-8 7-14 15-15 14-8 8-4 5-8 7-200 200-9 6-31 13-16 7-24 10-21 9-1-2 7-12 6-12-8 1h-559v-12l1-5 7 5 10-1 4-1h37l19-1h550l18-1 7-7 11-9 11-12 16-15 7-8 9-9 8-7 11-12 12-12h2l2-4 121-121 6-5 7-8 10-10 8-7 9-10 9-9 8-7 9-10 36-36 5-4 7-8 40-40 5-4 4-7h-435l-71-1-4-1v2l-12-1-7 1-6-1-6 1-6-1-7 1-66-1-3 1z" fill="#89558B"/>
<path transform="translate(38,39)" d="m0 0 2 1-2 32 1 826-1 13-1 3 11-1 171-1 1-1-4-1-8-16-5-8v-2h17l7-2 2 2-2 9-3 6-3 14h256l24-2v-11h4l3 11 97 1 15 3 13-1 17-2h27l3 2-10 4-26 8-35 10-16 4-2-1 9-15 2-4-119 1-15 3-52 16h-2l2-4 9-12 2-4-395-1-1-176v-529l1-99-10 6-7 5h-3l3-11 16-54 6-21z" fill="#4E1A5F"/>
<path transform="translate(1388,515)" d="m0 0h3v3l-5 5-8 13-10 19-6 10-14 25-6 9h-2l-1-3-1-13-1-2-5 1-185 185-8 7-16 17-45 45-8 7-10 11-8 7-8 8-7 8-12 11-7 7-7 5h-10l1-10 8-7 24-24 5-4 14-16 8-7 257-257 3-5-1-4-13-3-2-2 8-5 14-7 22-12 24-13 14-8z" fill="#FB2E34"/>
<path transform="translate(1390,514)" d="m0 0h634l-2 4-6 5-7 8-11 10-7 8-17 17-8 7-59 59-6 7-8 7-14 15-15 14-8 8-4 5-8 7-200 200-7 5-3-1 7-7 11-9 11-12 16-15 7-8 9-9 8-7 11-12 12-12h2l2-4 121-121 6-5 7-8 10-10 8-7 9-10 9-9 8-7 9-10 36-36 5-4 7-8 40-40 5-4 4-7h-435l-71-1-4-1v2l-12-1-7 1-6-1-6 1-6-1-7 1-66-1-3 1z" fill="#501C61"/>
<path transform="translate(501,900)" d="m0 0h4l3 11 97 1 15 3 13-1 17-2h27l3 2-10 4-26 8-35 10-16 4-2-1 9-15 2-4h-98l-16-1 1-5 12-3z" fill="#FB2E34"/>
<path transform="translate(500,138)" d="m0 0h2l6 18 14 47 5 18v3l-7-2-8-6-4-1-1 16h-7l1-29 2-6-2-25-1-12z" fill="#FB2D35"/>
<path transform="translate(1116,833)" d="m0 0h9l5 5 1 3v12l-3 14-4 6-8 7h-8l-5-4-2-4v-12l2-11 5-10 6-5z" fill="#511D61"/>
<path transform="translate(1390,514)" d="m0 0h45l339 1v1l84 1v1h-279l-71-1-4-1v2l-12-1-7 1-6-1-6 1-6-1-7 1-66-1-3 1z" fill="#693573"/>
<path transform="translate(144,835)" d="m0 0h10l5 5 1 2v14l-3 13-6 9-5 3h-9l-5-4-2-7 1-13 4-13 7-8z" fill="#531F63"/>
<path transform="translate(1552,667)" d="m0 0 5 2v13h8l5 2 2 5-1 9-5 9-3 2-14 1-6-1 1-9 5-31z" fill="#FA2D36"/>
<path transform="translate(1312,863)" d="m0 0h13l1 2v22l-3 3-7 1h-12l-4-3-1-3v-10l4-8 5-3z" fill="#4F1B60"/>
<path transform="translate(1060,340)" d="m0 0h16l-1 8v18l-1 1h-24l-2-2-1-5 3-11 5-8z" fill="#552164"/>
<path transform="translate(1484,682)" d="m0 0h9v26l-1 1h-24l-3-4 1-10 5-10 3-2z" fill="#4B175D"/>
<path transform="translate(1143,772)" d="m0 0 4 2 8 6 15 8-1 2-9 1 3 7 8 16 9 21 12 35-1 2-4-6-9-27-10-24-8-16-1-4h-2l-2 4-5 5h-2l-1-2-2-14-3-8v-6z" fill="#4F1B60"/>
<path transform="translate(1132,326)" d="m0 0h6l2 2v10l-5 21 1 4 5-2 4-7 1-8-1-6h5l4 5v7l-3 9-6 5-15 1-5-1 6-33z" fill="#FA2E35"/>
<path transform="translate(1145,660)" d="m0 0h7l1 2v12l-3 14-2 12 6-3 5-5 1-8-2-6v-4l7 2 3 4-1 11-5 8-4 2-15 2-4-2 1-8 5-23z" fill="#FA2D36"/>
<path transform="translate(726,508)" d="m0 0h9l4 5 1 5-4 16-3 4-3 1h-8l-4-3v-11-4l6-11z" fill="#521E62"/>
<path transform="translate(226,882)" d="m0 0 3 2-2 9-3 6-3 14-1-2-4-1-8-16-5-8v-2h17z" fill="#4B175D"/>
<path transform="translate(138,762)" d="m0 0 18 4 12 2v3l-7 5-8 13-4-2-10-19-3-5z" fill="#4D195E"/>
<path transform="translate(1201,869)" d="m0 0h2l-1 4-6 13-2 9-2 2-4-1-2-2-2-11-4-2-5-9 13 1h4z" fill="#4E1A5F"/>
<path transform="translate(116,196)" d="m0 0h3l2 6 2 14 2 8v7l-1 1h-5l-2-3-3-19-11 20-5 1 2-5 8-14 5-6-1-4 3-5z" fill="#4E1A5F"/>
<path transform="translate(139,854)" d="m0 0h12l1 1v12l-3 7-3 3h-6l-3-5v-13z" fill="#FEFEFE"/>
<path transform="translate(1114,853)" d="m0 0 9 1 1 5-2 9-5 7-5 1-4-4-1-3v-8l2-7z" fill="#FEFEFE"/>
<path transform="translate(164,784)" d="m0 0 5 2 10 12 14 21 12 23 9 24 2 11v5l-3-3-4-17-8-20-12-23-11-16-9-11-5-7z" fill="#5D296A"/>
<path transform="translate(1091,341)" d="m0 0 5 1 5 6 5 3 2-7 3-3h3l1 5-4 4-3 1 1 6 3 5-1 4-4-1-3-5-3-4-7 9-1 1h-5l2-5 5-7-1-5-3-4z" fill="#501C60"/>
<path transform="translate(1064,766)" d="m0 0h2v44l-1 11h-1l-1-50-8 8-9 11-9 10-9 11-16 17-5 5-2-1 8-8 9-11 7-7 9-11 9-10 9-11z" fill="#824E86"/>
<path transform="translate(438,914)" d="m0 0h35v1l-13 4-15 5-14 3 1-6 2-4 4-2z" fill="#8E5B90"/>
<path transform="translate(182,198)" d="m0 0h5l1 1 5 32h-6l-3-2-2-10-2-13v-6z" fill="#4E1A5F"/>
<path transform="translate(76,75)" d="m0 0h8l-2 17-3 9-3 3-7 2h-8l-2-3 2-2 5 1 6-2 2-5z" fill="#4E1A5F"/>
<path transform="translate(628,506)" d="m0 0 4 1 1 1 3 20 3 8-1 4-9-1-3-26v-5z" fill="#4F1B60"/>
<path transform="translate(237,482)" d="m0 0h2l2 7 4 24-1 4-4 1-2-2-5-22v-7l2-4z" fill="#521E62"/>
<path transform="translate(1509,683)" d="m0 0 5 1 4 5v2l5 1 6 12v5l-4-1-5-9-7 6-3 3-6 1 2-5 4-4h2l2-4-1-4-5-7z" fill="#511D62"/>
<path transform="translate(539,506)" d="m0 0 5 1 1 1 3 23 2 3-1 5-5 1-3-1-1-9v-13l-2-1 1-2-2-1z" fill="#592567"/>
<path transform="translate(727,510)" d="m0 0 5 1 3 4-1 5-1 1-1 10-4 5-5-1-1-2 1-13 3-9z" fill="#FEFEFE"/>
<path transform="translate(1155,788)" d="m0 0 11 2v1h-6l3 7 8 16 9 21 12 35-1 2-4-6-9-27-10-24-8-16-1-4h-2z" fill="#5D296A"/>
<path transform="translate(1560,682)" d="m0 0 9 1 3 6-1 9-5 9-3 2h-9l6-8 4-8v-6l-1-2-3-1z" fill="#FA2E35"/>
<path transform="translate(560,529)" d="m0 0h2v12l-4 6-1 5 5-2 3-17 2-2 3 1v9l-2 10-7 3-5-1-1-4 1-16z" fill="#845087"/>
<path transform="translate(1557,683)" d="m0 0 6 1 2 3-1 9-6 9-3 3h-3v-8z" fill="#FEFEFE"/>
<path transform="translate(138,210)" d="m0 0h20l4 4-2 9h-1l-1-8h-5l1 10-3 2h-7l4-3 3-2-1-5-2-2-9 1 1 6 2 5-4-1-2-9v-5z" fill="#572365"/>
<path transform="translate(1478,684)" d="m0 0h6v10l-1 10-2 3-5-1-3-3v-7l4-11z" fill="#FEFEFE"/>
<path transform="translate(1062,341)" d="m0 0h4l1 3v9l-2 9-1 1-7-1-2-2 1-8 4-9z" fill="#FEFEFE"/>
<path transform="translate(1069,340)" d="m0 0h7l-1 8v18h-2v-3l-8 1 2-22z" fill="#4F1B60"/>
<path transform="translate(1458,670)" d="m0 0 3 1-2 12-5 24-2 2h-4l1-7 6-28z" fill="#552164"/>
<path transform="translate(1116,837)" d="m0 0h6l3 3 2 9-1 1-15 1-2-3 1-5z" fill="#FEFEFE"/>
<path transform="translate(1158,674)" d="m0 0 7 2 3 4-1 11-5 8-4 2h-6l6-7 2-10-2-6z" fill="#FB2D34"/>
<path transform="translate(464,169)" d="m0 0 2 1-1 6-8 10-7 2-8-1v-3l11-7 9-7z" fill="#FEFEFE"/>
<path transform="translate(147,838)" d="m0 0 6 2 2 4v9l-2 2-1-3-11 1-2-5 2-5z" fill="#FEFEFE"/>
<path transform="translate(287,221)" d="m0 0 4 1 2 7h2l2-7h4v5l-3 3-1 9-3 3-5 2h-6l1-3 6-2v-7l-4 1v-11z" fill="#552164"/>
<path transform="translate(1586,671)" d="m0 0h4l-1 8-5 26-2 4h-5l6-28 2-9z" fill="#562265"/>
<path transform="translate(623,877)" d="m0 0h12l-2 2 4 14 3 3-1 3-6-2-1-1h-7l-7 1v-2l10-3-2-13-3-1z" fill="#552165"/>
<path transform="translate(1310,867)" d="m0 0 6 1 2 2v11l-4 5-4 1-3-4v-8z" fill="#FEFEFE"/>
<path transform="translate(235,204)" d="m0 0 4 1v8l6 4 1 2-4-1-4 10-4 1 2-12-7 4-5-1 1-5 8-1h2v-5l-1-4z" fill="#531F63"/>
<path transform="translate(1390,514)" d="m0 0h45l21 1-2 2h-60l-3 1z" fill="#602C6D"/>
<path transform="translate(681,506)" d="m0 0 3 1-1 5-1 7-1 21h-7l1-11 1-9 2-4 1-9z" fill="#521E62"/>
<path transform="translate(659,517)" d="m0 0h3v10l3-3 2-3 3 1-5 11-2 6h-9l3-3 1-8h-2l-1 2-1-10z" fill="#562265"/>
<path transform="translate(1325,865)" d="m0 0h1v22l-3 3-7 1h-12l3-8 3 3 5-2 2-3 1-10h1v10h3v2h2z" fill="#88548B"/>
<path transform="translate(1491,691)" d="m0 0h1l1 17-1 1h-24l-1-7 3-8 3 2 1 7 4 3h3l2-2v2l3-2h4z" fill="#88548B"/>
<path transform="translate(991,65)" d="m0 0h1v6l2-4v8l-4 19-4 2h-3l1-8z" fill="#FDFAFC"/>
<path transform="translate(271,208)" d="m0 0h6l1 1-1 8-3 10-5 3-8 1v-2l5-5 5-6z" fill="#521E62"/>
<path transform="translate(65,74)" d="m0 0 5 1v20l-7 1v-21z" fill="#4F1B60"/>
<path transform="translate(693,518)" d="m0 0 7 1-2 7-2 13-5 1-1-1 1-13 1-7z" fill="#542063"/>
<path transform="translate(726,508)" d="m0 0 4 2-3 1-3 9-1 13 1 2 6 3v1h-8l-4-3v-11-4l6-11z" fill="#592567"/>
<path transform="translate(705,517)" d="m0 0 5 1 1 4v12l1 5-5 1-4-1 2-19z" fill="#4F1B60"/>
<path transform="translate(1484,682)" d="m0 0h9v1h-8l-1 2h-6l-4 11-3 1-1-1-2 6 1 6-3-1-1-7 3-10 4-6 2-1z" fill="#5F2B6C"/>
<path transform="translate(1456,515)" d="m0 0h51l-3 1v2l-12-1-7 1-6-1-6 1-6-1-7 1-6-1z" fill="#592568"/>
<path transform="translate(990,48)" d="m0 0 1 4-1 11-3 10-9 9 1-5 10-26z" fill="#8A568C"/>
<path transform="translate(1321,863)" d="m0 0h4v22l-1-2h-2v-2h-3l-1-12h3z" fill="#47135A"/>
<path transform="translate(205,220)" d="m0 0 4 1 1 7v8h-8l1-13z" fill="#501C60"/>
<path transform="translate(33,82)" d="m0 0h1l1 23-5 1 1 3-6 2 3-5v-7z" fill="#FBFAFB"/>
<path transform="translate(266,208)" d="m0 0 3 1-8 10v10h-5l-1-5 3-9 5-6z" fill="#531F63"/>
<path transform="translate(535,517)" d="m0 0h3l-1 4-5 11-3 7h-4l1-6 8-15z" fill="#8A568C"/>
<path transform="translate(112,209)" d="m0 0 1 3-10 18-5 1 2-5 8-14z" fill="#521E62"/>
<path transform="translate(500,606)" d="m0 0h7v10l-1 3h-6z" fill="#ED333F"/>
<path transform="translate(500,332)" d="m0 0h7v8l-1 5h-6z" fill="#F4303A"/>
<path transform="translate(1570,911)" d="m0 0h8l-6 3 11-1-1 2-13 5-3-1-3-7z" fill="#FEFEFE"/>
<path transform="translate(1155,788)" d="m0 0 11 2v1h-6l3 7 8 16 1 3h-3l-8-16-2-6h-2z" fill="#5D296A"/>
<path transform="translate(500,493)" d="m0 0h7v11l-1 1h-6z" fill="#F1313C"/>
<path transform="translate(500,446)" d="m0 0h7l-1 13h-6z" fill="#F53039"/>
<path transform="translate(501,309)" d="m0 0h5l1 1v7l-2 5h-5v-12z" fill="#EA3441"/>
<path transform="translate(500,377)" d="m0 0h6v14h-6z" fill="#F62F38"/>
<path transform="translate(560,529)" d="m0 0h2v12l-5 8h-1v-16z" fill="#814D85"/>
<path transform="translate(500,401)" d="m0 0h7v9l-1 3h-6z" fill="#F3303A"/>
<path transform="translate(500,355)" d="m0 0h7v9l-1 3h-6z" fill="#F72F37"/>
<path transform="translate(229,496)" d="m0 0h2l-1 6-8 15-4-1 7-14z" fill="#673372"/>
<path transform="translate(206,851)" d="m0 0 3 1 5 14 2 11v5l-3-3-4-17-3-8z" fill="#5D296A"/>
<path transform="translate(500,515)" d="m0 0h6v13h-6z" fill="#F1313B"/>
<path transform="translate(501,264)" d="m0 0h6v13h-6z" fill="#F92F36"/>
<path transform="translate(501,538)" d="m0 0h5l1 1v8l-1 3h-6v-9z" fill="#E13748"/>
<path transform="translate(545,518)" d="m0 0h1l2 15-2 4-3-2-1-5v-11z" fill="#8A568C"/>
<path transform="translate(500,424)" d="m0 0h7l-1 12h-6z" fill="#EA3441"/>
<path transform="translate(501,241)" d="m0 0h5l1 1v10l-4 1-3-2v-9z" fill="#F72F37"/>
<path transform="translate(501,880)" d="m0 0h5l1 13h-6l-1-1z" fill="#F43039"/>
<path transform="translate(501,834)" d="m0 0 5 1v12h-6v-12z" fill="#F43039"/>
<path transform="translate(500,766)" d="m0 0h6v12l-5 1-1-1z" fill="#F63038"/>
<path transform="translate(500,674)" d="m0 0 6 1v12h-6z" fill="#F72F37"/>
<path transform="translate(500,652)" d="m0 0h6l1 5-1 7h-6z" fill="#EB3340"/>
<path transform="translate(500,560)" d="m0 0 6 1v12h-6z" fill="#F2313B"/>
<path transform="translate(500,287)" d="m0 0h7l-1 11-5 1-1-1z" fill="#F43039"/>
<path transform="translate(501,812)" d="m0 0 5 1 1 7-2 3h-5l-1-2v-6z" fill="#EC333F"/>
<path transform="translate(598,519)" d="m0 0 2 3v-3h5l-1 8 1 2-1 4-5-1-1-1z" fill="#8F6293"/>
<path transform="translate(174,211)" d="m0 0h2l1 5-5 8-3 7-4 1-1-2 7-11z" fill="#542064"/>
<path transform="translate(164,784)" d="m0 0 5 2 10 12 3 4-1 2-4-2-8-10-5-7z" fill="#88548A"/>
<path transform="translate(500,743)" d="m0 0h6v12h-6z" fill="#F0313C"/>
<path transform="translate(500,721)" d="m0 0h6v12h-6z" fill="#FC2E34"/>
<path transform="translate(500,698)" d="m0 0h6l1 1-1 10h-6z" fill="#F72F37"/>
<path transform="translate(500,629)" d="m0 0 7 1v7l-1 3h-6z" fill="#F53039"/>
<path transform="translate(503,583)" d="m0 0 3 1 1 8-2 3-5-1v-9z" fill="#EE323E"/>
<path transform="translate(500,858)" d="m0 0h6v12l-3 1-2-1-1-5z" fill="#ED333F"/>
<path transform="translate(500,789)" d="m0 0 7 1-1 11h-6z" fill="#F72F37"/>
<path transform="translate(500,470)" d="m0 0h6v11h-6z" fill="#FA2E35"/>
<path transform="translate(503,181)" d="m0 0h1l4 15v7l-4-1-2-2 1-6z" fill="#E41288"/>
<path transform="translate(1312,863)" d="m0 0h9l1 3-1 3-4 1-7-3-1 3-1-6z" fill="#8A568C"/>
<path transform="translate(621,519)" d="m0 0 1 2-4 13-5 5-3-1 6-10 4-8z" fill="#582467"/>
<path transform="translate(1064,362)" d="m0 0 1 2 8-1 1 4h-24v-1h8l1-3z" fill="#855188"/>
<path transform="translate(229,214)" d="m0 0 5 1 2-1 3 2-10 5-5-1 1-5z" fill="#5E2A6B"/>
<path transform="translate(586,518)" d="m0 0 2 2v9l-2 3h-3v-12z" fill="#9F77A2"/>
<path transform="translate(1025,810)" d="m0 0 3 1-16 17-5 5-2-1 8-8 9-11z" fill="#74407B"/>
<path transform="translate(541,522)" d="m0 0h1l2 13 2 1 1-3 3 1-1 5-5 1-3-1z" fill="#501C60"/>
<path transform="translate(1483,515)" d="m0 0h24l-3 1v2l-12-1-7 1-5-1z" fill="#5E2A6B"/>
<path transform="translate(1111,341)" d="m0 0h3l1 5-4 4-3 1-2 2 1-6 3-5z" fill="#582467"/>
<path transform="translate(1528,684)" d="m0 0 5 1 1 3-6 4h-3l1-5z" fill="#582467"/>
<path transform="translate(1170,817)" d="m0 0 3 1 5 12v4h-2l-6-14z" fill="#582466"/>
<path transform="translate(681,506)" d="m0 0 3 1-1 5-2 6h-3l1-11z" fill="#602C6C"/>
<path transform="translate(1064,766)" d="m0 0h2l-1 3h-2l-2 4-7 7-2-1 11-12z" fill="#663271"/>
<path transform="translate(222,508)" d="m0 0h3l1 2-4 7-4-1z" fill="#804C84"/>
<path transform="translate(1037,796)" d="m0 0h2l-2 4-8 10-3-1 10-11z" fill="#643070"/>
<path transform="translate(589,519)" d="m0 0h2l3 7v7l-3-1z" fill="#74407B"/>
<path transform="translate(1155,788)" d="m0 0 11 2v1h-6l1 5-2 1v-2h-2z" fill="#87538A"/>
<path transform="translate(27,100)" d="m0 0 2 2-1 6-5 5v-3z" fill="#8A568C"/>
<path transform="translate(1186,859)" d="m0 0h2l4 11-1 2-4-6z" fill="#622E6E"/>
<path transform="translate(153,220)" d="m0 0h1v5l-3 2h-7l4-3 5-2z" fill="#6B3775"/>
<path transform="translate(1469,515)" d="m0 0h14l-4 2-6 1-4-1z" fill="#521E62"/>
</svg>
